<svg width="75" height="75" viewBox="0 0 75 75" fill="none" xmlns="http://www.w3.org/2000/svg">
<path id="Exclude" fill-rule="evenodd" clip-rule="evenodd" d="M12 24C18.6274 24 24 18.6274 24 12C24 5.37256 18.6274 0 12 0C5.37256 0 0 5.37256 0 12C0 18.6274 5.37256 24 12 24ZM10.3529 6.64703C10.3529 5.73743 11.0903 5 12 5C12.9097 5 13.647 5.73743 13.647 6.64703V10.3529H17.3529C18.2626 10.3529 19 11.0903 19 12C19 12.9096 18.2626 13.647 17.3529 13.647H13.647V17.353C13.647 18.2626 12.9097 19 12 19C11.0903 19 10.3529 18.2626 10.3529 17.353V13.647H6.64709C5.73743 13.647 5 12.9096 5 12C5 11.0903 5.73743 10.3529 6.64709 10.3529H10.3529V6.64703Z" transform="translate(1.5 0.75) scale(3)" fill="#27AE60"/>
</svg>
