<svg width="90" height="153" viewBox="0 0 90 153" fill="none" xmlns="http://www.w3.org/2000/svg">
<g id="bank-transfer">
<path id="Vector" d="M29.3104 0H0V36.2069H29.3104V0Z" transform="translate(1.03418 20.7429) scale(3)" fill="#2D9CDB"/>
<path id="Vector_2" d="M2.58623 5.17246V28.6207H6.03447V5.17246H8.6207L4.31035 0L0 5.17246H2.58623Z" transform="translate(32.0684 33.1564) scale(3)" fill="#37446B"/>
<path id="Vector_3" d="M26.4948 6.89658H2.81553C1.26035 6.89658 -2.38419e-08 5.63623 -2.38419e-08 4.08106V-2.14577e-07H29.3104V4.08106C29.3104 5.63623 28.05 6.89658 26.4948 6.89658Z" transform="translate(1.03418 129.363) scale(3)" fill="#E7ECED"/>
<g id="Group">
<path id="Vector_4" d="M6.03457 1.72422H0.862109C0.38623 1.72422 -4.52995e-07 1.33799 -4.52995e-07 0.862109C-4.52995e-07 0.38623 0.38623 -7.39098e-07 0.862109 -7.39098e-07H6.03457C6.51045 -7.39098e-07 6.89668 0.38623 6.89668 0.862109C6.89658 1.33799 6.51045 1.72422 6.03457 1.72422Z" transform="translate(34.6553 137.122) scale(3)" fill="#AFB6BB"/>
<path id="Vector_5" d="M4.31035 1.72422H0.86211C0.386231 1.72422 -7.15256e-08 1.33799 -7.15256e-08 0.862109C-7.15256e-08 0.38623 0.386231 -7.39098e-07 0.86211 -7.39098e-07H4.31035C4.78623 -7.39098e-07 5.17246 0.38623 5.17246 0.862109C5.17246 1.33799 4.78623 1.72422 4.31035 1.72422Z" transform="translate(63.1025 137.122) scale(3)" fill="#AFB6BB"/>
<path id="Vector_6" d="M4.31035 1.72422H0.862109C0.38623 1.72422 -2.6226e-07 1.33799 -2.6226e-07 0.862109C-2.6226e-07 0.38623 0.38623 -7.39098e-07 0.862109 -7.39098e-07H4.31035C4.78623 -7.39098e-07 5.17246 0.38623 5.17246 0.862109C5.17246 1.33799 4.78623 1.72422 4.31035 1.72422Z" transform="translate(11.3789 137.122) scale(3)" fill="#AFB6BB"/>
</g>
<path id="Vector_7" d="M2.81553 0H26.4957C28.05 0 29.3104 1.26035 29.3104 2.81553V6.89658H-2.38419e-08V2.81553C-2.38419e-08 1.26035 1.26035 0 2.81553 0Z" transform="translate(1.03418 0.0531006) scale(3)" fill="#E7ECED"/>
<path id="Vector_8" d="M9.48281 1.72422H0.862109C0.38623 1.72422 -3.33786e-07 1.33799 -3.33786e-07 0.862109C-3.33786e-07 0.386231 0.38623 3.42727e-08 0.862109 3.42727e-08H9.48281C9.95869 3.42727e-08 10.3449 0.386231 10.3449 0.862109C10.3449 1.33799 9.95869 1.72422 9.48281 1.72422Z" transform="translate(29.4829 7.81146) scale(3)" fill="#AFB6BB"/>
</g>
</svg>
