<svg width="90" height="94" viewBox="0 0 90 94" fill="none" xmlns="http://www.w3.org/2000/svg">
<path d="M37.3032 83.9691L72.3948 63.6219C72.8371 63.327 73.132 62.8847 73.132 62.2949V21.8954C73.132 21.8954 73.132 21.8954 73.132 21.7479C73.132 21.6005 73.132 21.6005 73.132 21.6005C73.132 21.3056 72.8371 21.0107 72.6896 20.7158H72.5422L72.3948 20.5684L37.3032 0.221165C36.8609 -0.0737219 36.2711 -0.0737219 35.8288 0.221165L0.737217 20.5684L0.589774 20.7158H0.442331C0.147444 21.0107 -2.81226e-07 21.3056 -2.81226e-07 21.6005V21.7479V21.8954V62.4423C-2.81226e-07 63.0321 0.294887 63.4744 0.737217 63.7693L35.8288 84.1165H35.9762H36.1237C36.4185 84.264 36.8609 84.264 37.1558 84.1165H37.3032V83.9691ZM2.94887 24.4019L13.4174 30.4471V38.9988C13.4174 39.5886 13.7122 40.0309 14.1546 40.3258L20.4946 44.0119C20.7895 44.1593 20.937 44.1593 21.2319 44.1593C22.1165 44.1593 22.7063 43.5696 22.7063 42.6849V35.9025L35.0916 43.1272V72.7634L2.94887 53.8906V24.4019ZM53.3745 12.9013L21.2319 31.4792L17.8407 29.5624L49.9833 10.9845L53.3745 12.9013ZM68.7087 21.7479L36.566 40.3258L24.1807 33.1011L56.3234 14.5232L68.7087 21.7479ZM70.1831 53.8906L38.0404 72.4685V42.9798L70.1831 24.4019V53.8906ZM19.7574 34.1332V40.0309L16.3662 38.1141V32.2164L19.7574 34.1332ZM38.0404 80.1355V76.0071L70.1831 57.4292V61.5577L38.0404 80.1355ZM36.566 3.31748L47.0345 9.36266L14.8918 27.9405L4.4233 21.8954L36.566 3.31748ZM2.94887 57.4292L35.0916 76.0071V80.1355L2.94887 61.5577V57.4292Z" transform="translate(8.43384 9.19812)" fill="#8AF86F"/>
<path d="M2.94887 0H0V2.94887H2.94887V0Z" transform="translate(27.3066 0.425293)" fill="#8AF86F"/>
<path d="M2.94887 0H0V2.94887H2.94887V0Z" transform="translate(49.4231 0.425293)" fill="#8AF86F"/>
<path d="M2.94887 0H0V2.94887H2.94887V0Z" transform="translate(0.766602 22.5417)" fill="#8AF86F"/>
<path d="M2.94887 0H0V2.94887H2.94887V0Z" transform="translate(86.2844 21.8047)" fill="#8AF86F"/>
<path d="M2.94887 0H0V2.94887H2.94887V0Z" transform="translate(73.0139 1.89966)" fill="#8AF86F"/>
<path d="M2.94887 0H0V2.94887H2.94887V0Z" transform="translate(73.0139 7.79749)" fill="#8AF86F"/>
<path d="M2.94887 0H0V2.94887H2.94887V0Z" transform="translate(70.0652 4.84851)" fill="#8AF86F"/>
<path d="M2.94887 0H0V2.94887H2.94887V0Z" transform="translate(75.9631 4.84851)" fill="#8AF86F"/>
<path d="M2.94887 0H0V2.94887H2.94887V0Z" transform="translate(83.3352 81.5192)" fill="#8AF86F"/>
<path d="M2.94887 0H0V2.94887H2.94887V0Z" transform="translate(83.3352 87.4169)" fill="#8AF86F"/>
<path d="M2.94887 0H0V2.94887H2.94887V0Z" transform="translate(80.386 84.4681)" fill="#8AF86F"/>
<path d="M2.94887 0H0V2.94887H2.94887V0Z" transform="translate(86.2844 84.4681)" fill="#8AF86F"/>
<path d="M2.94887 0H0V2.94887H2.94887V0Z" transform="translate(3.71582 81.5192)" fill="#8AF86F"/>
<path d="M2.94887 0H0V2.94887H2.94887V0Z" transform="translate(3.71582 87.4169)" fill="#8AF86F"/>
<path d="M2.94887 0H0V2.94887H2.94887V0Z" transform="translate(0.766602 84.4681)" fill="#8AF86F"/>
<path d="M2.94887 0H0V2.94887H2.94887V0Z" transform="translate(6.66382 84.4681)" fill="#8AF86F"/>
<path d="M2.94887 0H0V2.94887H2.94887V0Z" transform="translate(9.61304 3.37415)" fill="#8AF86F"/>
<path d="M2.94887 0H0V2.94887H2.94887V0Z" transform="translate(9.61304 9.27185)" fill="#8AF86F"/>
<path d="M2.94887 0H0V2.94887H2.94887V0Z" transform="translate(6.66382 6.32312)" fill="#8AF86F"/>
<path d="M2.94887 0H0V2.94887H2.94887V0Z" transform="translate(12.5623 6.32312)" fill="#8AF86F"/>
</svg>
