<svg width="89" height="94" viewBox="0 0 89 94" fill="none" xmlns="http://www.w3.org/2000/svg">
<path d="M37.3032 83.9691L72.3948 63.6219C72.8371 63.327 73.132 62.8847 73.132 62.2949V21.8954C73.132 21.8954 73.132 21.8954 73.132 21.7479C73.132 21.6005 73.132 21.6005 73.132 21.6005C73.132 21.3056 72.8371 21.0107 72.6897 20.7158H72.5422L72.3948 20.5684L37.3032 0.221165C36.8609 -0.0737219 36.2711 -0.0737219 35.8288 0.221165L0.737217 20.5684L0.589774 20.7158H0.442331C0.147444 21.0107 -2.81226e-07 21.3056 -2.81226e-07 21.6005V21.7479V21.8954V62.4423C-2.81226e-07 63.0321 0.294887 63.4744 0.737217 63.7693L35.8288 84.1165H35.9762H36.1237C36.4186 84.264 36.8609 84.264 37.1558 84.1165H37.3032V83.9691ZM2.94887 24.4019L13.4174 30.4471V38.9988C13.4174 39.5886 13.7122 40.0309 14.1546 40.3258L20.4947 44.0119C20.7895 44.1593 20.937 44.1593 21.2319 44.1593C22.1165 44.1593 22.7063 43.5696 22.7063 42.6849V35.9025L35.0916 43.1272V72.7634L2.94887 53.8906V24.4019ZM53.3746 12.9013L21.2319 31.4792L17.8407 29.5624L49.9834 10.9845L53.3746 12.9013ZM68.7087 21.7479L36.566 40.3258L24.1807 33.1011L56.3234 14.5232L68.7087 21.7479ZM70.1831 53.8906L38.0404 72.4685V42.9798L70.1831 24.4019V53.8906ZM19.7574 34.1332V40.0309L16.3662 38.1142V32.2164L19.7574 34.1332ZM38.0404 80.1356V76.0071L70.1831 57.4293V61.5577L38.0404 80.1356ZM36.566 3.31748L47.0345 9.36267L14.8918 27.9405L4.42331 21.8954L36.566 3.31748ZM2.94887 57.4293L35.0916 76.0071V80.1356L2.94887 61.5577V57.4293Z" transform="translate(7.93335 9.19812)" fill="#EB5757"/>
<path d="M2.94887 0H0V2.94887H2.94887V0Z" transform="translate(26.8062 0.425293)" fill="#EB5757"/>
<path d="M2.94887 0H0V2.94887H2.94887V0Z" transform="translate(48.9221 0.425293)" fill="#EB5757"/>
<path d="M2.94887 0H0V2.94887H2.94887V0Z" transform="translate(0.266602 22.5417)" fill="#EB5757"/>
<path d="M2.94887 0H0V2.94887H2.94887V0Z" transform="translate(85.7839 21.8046)" fill="#EB5757"/>
<path d="M2.94887 0H0V2.94887H2.94887V0Z" transform="translate(72.5137 1.89978)" fill="#EB5757"/>
<path d="M2.94887 0H0V2.94887H2.94887V0Z" transform="translate(72.5137 7.79749)" fill="#EB5757"/>
<path d="M2.94887 0H0V2.94887H2.94887V0Z" transform="translate(69.5649 4.84863)" fill="#EB5757"/>
<path d="M2.94887 0H0V2.94887H2.94887V0Z" transform="translate(75.4634 4.84863)" fill="#EB5757"/>
<path d="M2.94887 0H0V2.94887H2.94887V0Z" transform="translate(82.8342 81.5192)" fill="#EB5757"/>
<path d="M2.94887 0H0V2.94887H2.94887V0Z" transform="translate(82.8342 87.4171)" fill="#EB5757"/>
<path d="M2.94887 0H0V2.94887H2.94887V0Z" transform="translate(79.8862 84.4681)" fill="#EB5757"/>
<path d="M2.94887 0H0V2.94887H2.94887V0Z" transform="translate(85.7839 84.4681)" fill="#EB5757"/>
<path d="M2.94887 0H0V2.94887H2.94887V0Z" transform="translate(3.21631 81.5192)" fill="#EB5757"/>
<path d="M2.94887 0H0V2.94887H2.94887V0Z" transform="translate(3.21631 87.4171)" fill="#EB5757"/>
<path d="M2.94887 0H0V2.94887H2.94887V0Z" transform="translate(0.266602 84.4681)" fill="#EB5757"/>
<path d="M2.94887 0H0V2.94887H2.94887V0Z" transform="translate(6.16357 84.4681)" fill="#EB5757"/>
<path d="M2.94887 0H0V2.94887H2.94887V0Z" transform="translate(9.11304 3.37415)" fill="#EB5757"/>
<path d="M2.94887 0H0V2.94887H2.94887V0Z" transform="translate(9.11304 9.27185)" fill="#EB5757"/>
<path d="M2.94887 0H0V2.94887H2.94887V0Z" transform="translate(6.16357 6.323)" fill="#EB5757"/>
<path d="M2.94887 0H0V2.94887H2.94887V0Z" transform="translate(12.0627 6.323)" fill="#EB5757"/>
</svg>
