<svg width="130" height="131" viewBox="0 0 130 131" fill="none" xmlns="http://www.w3.org/2000/svg">
<path d="M124.583 0V92.0834C124.583 98.0665 119.733 102.917 113.75 102.917H10.8334C4.85037 102.917 9.29832e-08 98.0665 9.29832e-08 92.0834V0H124.583Z" transform="translate(2.70825 25.3192)" fill="#2D9CDB" fill-opacity="0.35"/>
<path d="M124.583 10.8334V21.6668H-4.64916e-08V10.8334C-4.64916e-08 4.85037 4.85037 9.29832e-08 10.8334 9.29832e-08H113.75C119.733 0.000253999 124.583 4.85037 124.583 10.8334Z" transform="translate(2.7085 3.65237)" fill="#2D9CDB"/>
<path d="M21.6668 -1.98364e-06V8.125C21.6668 9.62076 20.4542 10.8334 18.9584 10.8334H2.70842C1.21266 10.8334 -1.89066e-06 9.62076 -1.89066e-06 8.125V-1.98364e-06H21.6668Z" transform="translate(54.167 101.153)" fill="#FF9600"/>
<path d="M21.6668 -1.98364e-06V8.125C21.6668 9.62076 20.4542 10.8334 18.9584 10.8334H2.70842C1.21266 10.8334 4.64916e-08 9.62076 4.64916e-08 8.125V-1.98364e-06H21.6668Z" transform="translate(21.667 101.153)" fill="#EB5757"/>
<path d="M2.70842 1.98364e-06H83.9584C85.4542 1.98364e-06 86.6668 1.21266 86.6668 2.70842V13.5418C86.6668 15.0376 85.4542 16.2503 83.9584 16.2503H2.70842C1.21266 16.2503 4.64916e-08 15.0376 4.64916e-08 13.5418V2.70842C4.64916e-08 1.21266 1.21266 1.98364e-06 2.70842 1.98364e-06Z" transform="translate(21.667 71.3608)" fill="#F2F2F2"/>
<path d="M2.70842 0H83.9584C85.4542 0 86.6668 1.21266 86.6668 2.70842V13.5418C86.6668 15.0376 85.4542 16.2503 83.9584 16.2503H2.70842C1.21266 16.2503 4.64916e-08 15.0376 4.64916e-08 13.5418V2.70842C4.64916e-08 1.21266 1.21266 0 2.70842 0Z" transform="translate(21.667 41.5692)" fill="#F2F2F2"/>
<path d="M116.458 0H13.5416C6.06658 0.00888672 0.00888672 6.06658 0 13.5416V116.458C0.00888672 123.933 6.06658 129.991 13.5416 130H116.458C123.933 129.991 129.991 123.933 130 116.458V13.5416C129.991 6.06658 123.933 0.00888672 116.458 0ZM124.583 116.458C124.583 120.946 120.946 124.583 116.458 124.583H13.5416C9.0543 124.583 5.41658 120.946 5.41658 116.458V13.5416C5.41658 9.0543 9.0543 5.41658 13.5416 5.41658H116.458C120.945 5.41658 124.583 9.0543 124.583 13.5416V116.458H124.583Z" transform="translate(0.000244141 0.944214)" fill="#4C5B66"/>
<path d="M-4.64916e-08 4.64916e-08H108.333V5.41658H-4.64916e-08V4.64916e-08Z" transform="translate(10.8335 22.6108)" fill="#4C5B66"/>
<path d="M4.64916e-08 -4.64916e-08H5.41658V5.41658H4.64916e-08V-4.64916e-08Z" transform="translate(13.542 11.7776)" fill="#4C5B66"/>
<path d="M0 -4.64916e-08H5.41658V5.41658H0V-4.64916e-08Z" transform="translate(24.3752 11.7776)" fill="#4C5B66"/>
<path d="M1.98364e-06 -4.64916e-08H5.41658V5.41658H1.98364e-06V-4.64916e-08Z" transform="translate(111.042 11.7776)" fill="#4C5B66"/>
<path d="M86.6666 -1.89066e-06H5.41658C2.42506 -1.89066e-06 -4.64916e-08 2.42506 -4.64916e-08 5.41658V16.25C-4.64916e-08 19.2415 2.42506 21.6666 5.41658 21.6666H86.6666C89.6581 21.6666 92.0832 19.2415 92.0832 16.25V5.41658C92.0832 2.42531 89.6581 -1.89066e-06 86.6666 -1.89066e-06ZM86.6666 16.25H5.41658V5.41658H86.6666V16.25Z" transform="translate(18.9585 38.8608)" fill="#4C5B66"/>
<path d="M86.6666 -1.98364e-06H5.41658C2.42506 -1.98364e-06 -4.64916e-08 2.42506 -4.64916e-08 5.41658V16.25C-4.64916e-08 19.2415 2.42506 21.6666 5.41658 21.6666H86.6666C89.6581 21.6666 92.0832 19.2415 92.0832 16.25V5.41658C92.0832 2.42506 89.6581 -1.98364e-06 86.6666 -1.98364e-06ZM86.6666 16.25H5.41658V5.41658H86.6666V16.25Z" transform="translate(18.9585 68.6526)" fill="#4C5B66"/>
<path d="M24.3753 0H2.70842C1.21266 0 9.29833e-08 1.21265 9.29833e-08 2.70842V10.8334C0.000253999 13.8249 2.42531 16.25 5.41684 16.25H21.6668C24.6584 16.25 27.0834 13.8249 27.0834 10.8334V2.70842C27.0834 1.21265 25.871 0 24.3753 0ZM21.6668 10.8334H5.41684V5.41684H21.6668V10.8334Z" transform="translate(18.9583 98.4442)" fill="#4C5B66"/>
<path d="M24.375 0H2.70842C1.21266 0 1.89066e-06 1.21265 1.89066e-06 2.70842V10.8334C1.89066e-06 13.8249 2.42506 16.25 5.41658 16.25H21.6666C24.6581 16.25 27.0832 13.8249 27.0832 10.8334V2.70842C27.0832 1.21265 25.8708 0 24.375 0ZM21.6666 10.8334H5.41658V5.41684H21.6666V10.8334Z" transform="translate(51.4585 98.4442)" fill="#4C5B66"/>
<path d="M0 0H5.41658V5.41658H0V0Z" transform="translate(105.625 98.4442)" fill="#4C5B66"/>
<path d="M1.98364e-06 0H5.41658V5.41658H1.98364e-06V0Z" transform="translate(94.792 98.4442)" fill="#4C5B66"/>
<path d="M1.98364e-06 -1.98364e-06H24.375V5.41658H1.98364e-06V-1.98364e-06Z" transform="translate(86.667 109.278)" fill="#4C5B66"/>
</svg>
