<svg width="131" height="131" viewBox="0 0 131 131" fill="none" xmlns="http://www.w3.org/2000/svg">
<path d="M8.12506 0H121.875C126.344 0 130 3.65612 130 8.12506V121.875C130 126.344 126.344 130 121.875 130H8.12506C3.65612 130 0 126.344 0 121.875V8.12506C0 3.65612 3.65612 0 8.12506 0Z" transform="translate(0.666504 0.690796)" fill="#2D9CDB"/>
<path d="M4.06253 2.67569e-07H101.562C103.797 2.67569e-07 105.625 1.82806 105.625 4.06253V97.4997C105.625 99.7342 103.797 101.562 101.562 101.562H4.06253C1.82806 101.562 4.09222e-07 99.7342 4.09222e-07 97.4997V4.06227C0.000258282 1.82806 1.82832 2.67569e-07 4.06253 2.67569e-07Z" transform="translate(12.8538 12.8784)" fill="white"/>
<path d="M2.67569e-07 44.6873C2.67569e-07 46.9218 1.82806 48.7499 4.06253 48.7499H101.562C103.797 48.7499 105.625 46.9218 105.625 44.6873V-9.12881e-07H2.67569e-07V44.6873Z" transform="translate(12.8541 65.6908)" fill="#F5F5F5"/>
<path d="M101.563 4.06253H4.06253C1.82806 4.06253 4.09222e-07 2.23447 4.09222e-07 1.57393e-06V4.06253C4.09222e-07 6.297 1.82806 8.12507 4.06253 8.12507H101.562C103.797 8.12507 105.625 6.297 105.625 4.06253V1.57393e-06C105.625 2.23447 103.797 4.06253 101.563 4.06253Z" transform="translate(12.8538 106.316)" fill="#E2E0E0"/>
<path d="M2.03127 -6.29573e-08C0.91416 -6.29573e-08 -4.32831e-07 0.91416 -4.32831e-07 2.03127V8.12506C-4.32831e-07 9.24217 0.91416 10.1563 2.03127 10.1563C3.14837 10.1563 4.06253 9.24217 4.06253 8.12506V2.03127C4.06227 0.913902 3.14837 -6.29573e-08 2.03127 -6.29573e-08ZM107.656 -6.29573e-08C106.539 -6.29573e-08 105.625 0.91416 105.625 2.03127V8.12506C105.625 9.24217 106.539 10.1563 107.656 10.1563C108.773 10.1563 109.687 9.24217 109.687 8.12506V2.03127C109.687 0.913902 108.773 -6.29573e-08 107.656 -6.29573e-08Z" transform="translate(10.8228 59.597)" fill="#FF9600"/>
<path d="M1.25915e-07 -6.29573e-07H101.562V2.03127H1.25915e-07V-6.29573e-07Z" transform="translate(14.8851 63.6595)" fill="#E5E5E5"/>
<path d="M3.04677 3.30526e-07H13.2031C14.9296 3.30526e-07 16.2499 1.32031 16.2499 3.04677C16.2499 4.77323 14.9296 6.09354 13.2031 6.09354H3.04677C1.32031 6.09354 2.20351e-07 4.77323 2.20351e-07 3.04677C2.20351e-07 1.42191 1.32031 3.30526e-07 3.04677 3.30526e-07Z" transform="translate(57.5414 19.9877)" fill="#B5DCF2"/>
<path d="M1.52352 -6.29573e-07L-1.57393e-07 2.03127H9.64832L10.867 -6.29573e-07H1.52352ZM38.289 -6.29573e-07H27.3204C27.2188 0.304805 27.2188 0.710956 27.2188 1.11711C27.2188 1.52326 27.2188 1.82806 27.3204 2.03127H40.5235C39.7109 1.32031 38.797 0.812559 37.8828 0.304807L38.289 -6.29573e-07Z" transform="translate(49.9241 63.6595)" fill="#394B54"/>
<path d="M21.9378 31.4845H11.9847C16.6565 25.7971 25.0862 18.4846 25.0862 11.0705C25.0862 4.26574 19.7033 0.000257873 13.0002 0.000257873C6.297 0.000257873 0.203202 5.3831 0.203202 12.0863C0.203202 14.1175 1.52351 15.9456 4.16413 15.9456C9.34377 15.9456 6.39861 7.31276 12.6953 7.31276C14.9298 7.31276 16.6563 9.24243 16.6563 11.3753C16.6563 13.305 15.7421 14.9301 14.7266 16.3517C10.5625 22.2423 5.68765 27.0158 1.21871 32.2971C0.710955 32.9064 -2.20351e-07 33.9222 -2.20351e-07 35.0393C-2.20351e-07 37.4767 1.82806 38.5941 4.26574 38.5941H22.4453C24.4765 38.5941 26.4062 37.5786 26.4062 35.0393C26.2035 32.5 24.2739 31.4845 21.9378 31.4845ZM50.3752 17.5704C53.2191 15.7424 54.641 12.8986 54.641 9.54698C54.641 5.48444 51.0862 -1.82576e-06 43.5707 -1.82576e-06C37.7818 -1.82576e-06 32.1957 4.36708 32.1957 8.53121C32.1957 10.4609 33.4144 12.3905 35.5473 12.3905C39.1021 12.3905 38.3911 7.21091 43.3675 7.21091C45.7034 7.21091 47.1253 8.73442 47.1253 10.7657C47.1253 16.5547 39.7112 12.8986 39.7112 18.3827C39.7112 24.5781 48.5472 19.1953 48.5472 26.5078C48.5472 29.25 46.3127 31.3829 43.6721 31.3829C37.7815 31.3829 38.5941 25.2891 35.0393 25.2891C33.2112 25.2891 31.0783 26.711 31.0783 28.8439C31.0783 33.008 35.8518 38.6954 43.5705 38.6954C50.9846 38.4922 56.672 33.211 56.672 26.9142C56.672 22.7501 54.133 19.2969 50.3752 17.5704Z" transform="translate(37.4318 46.4952)" fill="#EB5757"/>
</svg>
