<svg width="33" height="29" viewBox="0 0 33 29" fill="none" xmlns="http://www.w3.org/2000/svg">
<rect width="32" height="27.8063" fill="black" fill-opacity="0" transform="translate(0.470703 0.758972)"/>
<path d="M32.1592 12.3286C31.8116 11.9991 31.2442 11.968 30.8626 12.259L30.4063 12.6066C28.711 13.8987 24.7525 16.9152 22.9285 18.3029C21.5843 19.3271 20.0598 20.2061 18.5859 21.0564L17.9288 21.4361C17.8112 21.5042 17.689 21.5658 17.5863 21.6099C17.2122 21.7556 16.8406 21.8327 16.495 21.8382C16.487 21.8382 16.479 21.8382 16.471 21.8387L16.4539 21.8382C16.0963 21.8327 15.7247 21.7561 15.3722 21.6189C15.2479 21.5663 15.1257 21.5047 15.0071 21.4356L14.3515 21.0564C12.8776 20.2061 11.3531 19.3271 10.0084 18.3029C8.13277 16.8756 3.47563 13.5016 2.09286 12.5014C1.69722 12.2149 1.11376 12.264 0.770695 12.6076C0.57838 12.7999 0.472706 13.0568 0.473207 13.3303C0.474209 14.1241 0.47471 15.6351 0.473708 15.8669C0.470703 16.6612 0.470703 17.459 0.470703 18.2534L0.473708 25.4201C0.477715 27.3222 1.72326 28.5573 3.64992 28.5653H29.289H29.2905C31.2141 28.5573 32.4592 27.3222 32.4637 25.4181L32.4667 18.2539C32.4667 17.4596 32.4667 16.6617 32.4637 15.8704C32.4637 15.6005 32.4662 15.3306 32.4682 15.0601L32.4692 14.9539C32.4697 14.9159 32.4697 14.2763 32.4702 13.6763L32.4707 13.0558C32.4707 12.7814 32.357 12.5164 32.1592 12.3286ZM30.8906 14.9394L30.8896 15.0466C30.8871 15.321 30.8851 15.5955 30.8851 15.8729C30.8881 16.6652 30.8881 17.4611 30.8881 18.2534L30.8851 25.4161C30.8826 26.4533 30.3447 26.9817 29.285 26.9867H3.65342C2.59319 26.9822 2.0543 26.4538 2.0523 25.4181L2.04929 18.2539C2.04929 17.4616 2.04929 16.6657 2.0523 15.8739C2.0528 15.7287 2.0528 15.0811 2.0528 14.4216C3.95792 15.8028 7.48772 18.369 9.05228 19.5595C10.4771 20.6448 12.0457 21.5493 13.5627 22.4242L14.2132 22.8003C14.388 22.902 14.5703 22.9936 14.7767 23.0808C15.3136 23.2901 15.8554 23.4028 16.4003 23.4158L16.4684 23.4183C16.4895 23.4183 16.5105 23.4173 16.5316 23.4158C17.0704 23.4043 17.6183 23.2916 18.1818 23.0718C18.3671 22.9931 18.5494 22.9015 18.7226 22.8008L19.3747 22.4237C20.8917 21.5488 22.4603 20.6438 23.8851 19.559C25.5559 18.2879 29.0185 15.6491 30.8911 14.2217C30.8911 14.6004 30.8906 14.9059 30.8906 14.9394Z" fill="#2D9CDB"/>
<path d="M4.09163 9.02472C4.34254 9.38731 4.84035 9.47546 5.19894 9.21854C7.96348 7.23879 12.3041 4.15924 13.7715 3.21669C15.5589 2.07281 17.2928 2.05929 19.229 3.17462C21.6459 4.56691 27.9207 9.18298 29.9175 10.6619C30.2626 10.9178 30.7479 10.8497 31.0108 10.5097C31.2812 10.1596 31.2131 9.65676 30.858 9.39383C28.8232 7.88535 22.5279 3.25275 20.0173 1.80638C17.5482 0.383543 15.2269 0.410086 12.9196 1.88751C11.4262 2.84658 7.05849 5.94517 4.28044 7.93443C3.92986 8.18534 3.84672 8.67014 4.09163 9.02472Z" fill="#2D9CDB"/>
<path d="M25.0851 9.0773H9.05785C8.62213 9.0773 8.26855 9.43038 8.26855 9.8666C8.26855 10.3028 8.62213 10.6559 9.05785 10.6559H25.0851C25.5209 10.6559 25.8744 10.3028 25.8744 9.8666C25.8744 9.43088 25.5214 9.0773 25.0851 9.0773Z" fill="#2D9CDB"/>
<path d="M7.04076 12.9396C6.60505 12.9396 6.25146 13.2927 6.25146 13.7289C6.25146 14.1651 6.60505 14.5182 7.04076 14.5182H22.3884C22.8242 14.5182 23.1777 14.1651 23.1777 13.7289C23.1777 13.2927 22.8242 12.9396 22.3884 12.9396H7.04076Z" fill="#2D9CDB"/>
<path d="M25.0851 14.4962C25.5089 14.4962 25.8524 14.1527 25.8524 13.7289C25.8524 13.3052 25.5089 12.9617 25.0851 12.9617C24.6614 12.9617 24.3179 13.3052 24.3179 13.7289C24.3179 14.1527 24.6614 14.4962 25.0851 14.4962Z" fill="#2D9CDB"/>
<path d="M2.98454 10.8172C3.40829 10.8172 3.7518 10.4737 3.7518 10.0499C3.7518 9.62617 3.40829 9.28265 2.98454 9.28265C2.5608 9.28265 2.21729 9.62617 2.21729 10.0499C2.21729 10.4737 2.5608 10.8172 2.98454 10.8172Z" fill="#2D9CDB"/>
</svg>
