<svg width="35" height="34" viewBox="0 0 35 34" fill="none" xmlns="http://www.w3.org/2000/svg">
<rect width="32.9419" height="32" fill="black" fill-opacity="0" transform="translate(1 0.565277)"/>
<path d="M33.796 14.7341L17.677 0.644589C17.6592 0.632322 17.6405 0.621406 17.621 0.611931C17.5962 0.593804 17.5696 0.578177 17.5417 0.565277H17.4577H17.3691H17.2804H17.1965C17.1685 0.578177 17.142 0.593804 17.1171 0.611931C17.0977 0.621421 17.079 0.632337 17.0612 0.644589L1.1568 14.5522C1.06338 14.6363 1.00721 14.7541 1.00065 14.8797C0.994085 15.0052 1.03767 15.1282 1.12181 15.2216C1.20595 15.3151 1.32375 15.3712 1.4493 15.3778C1.57486 15.3844 1.69787 15.3408 1.79129 15.2566L3.49883 13.7497V32.0987C3.49883 32.2225 3.54798 32.3411 3.63548 32.4286C3.72297 32.5161 3.84164 32.5653 3.96537 32.5653H12.8763C13 32.5653 13.1187 32.5161 13.2062 32.4286C13.2937 32.3411 13.3428 32.2225 13.3428 32.0987V24.4241H21.386V32.0987C21.386 32.2225 21.4351 32.3411 21.5226 32.4286C21.6101 32.5161 21.7288 32.5653 21.8525 32.5653H30.7634C30.8872 32.5653 31.0058 32.5161 31.0933 32.4286C31.1808 32.3411 31.23 32.2225 31.23 32.0987V13.7497L33.1661 15.4432C33.2124 15.4837 33.2662 15.5146 33.3244 15.5343C33.3826 15.5539 33.4441 15.5619 33.5054 15.5578C33.5667 15.5537 33.6266 15.5375 33.6816 15.5103C33.7367 15.483 33.7858 15.4452 33.8263 15.3989C33.8667 15.3527 33.8976 15.2989 33.9173 15.2407C33.937 15.1825 33.945 15.121 33.9408 15.0597C33.9367 14.9984 33.9206 14.9385 33.8933 14.8834C33.8661 14.8284 33.8282 14.7792 33.782 14.7388L33.796 14.7341ZM30.3109 31.6322H22.3191V23.9576C22.3191 23.8339 22.2699 23.7152 22.1824 23.6277C22.0949 23.5402 21.9763 23.4911 21.8525 23.4911H12.8763C12.7526 23.4911 12.6339 23.5402 12.5464 23.6277C12.4589 23.7152 12.4097 23.8339 12.4097 23.9576V31.6322H4.43191V12.9286L17.3691 1.61966L30.3109 12.9286V31.6322Z" fill="#2D9CDB" stroke="#2D9CDB"/>
<path d="M15.4424 18.4758H19.3007V14.6221H15.4424V18.4758ZM16.3755 15.5505H18.3676V17.5427H16.3755V15.5505Z" fill="#2D9CDB" stroke="#2D9CDB"/>
</svg>
