<svg width="21" height="33" viewBox="0 0 21 33" fill="none" xmlns="http://www.w3.org/2000/svg">
<rect width="19.2" height="32" fill="black" fill-opacity="0" transform="translate(0.871094 0.565277)"/>
<path d="M3.77243 32.5653H17.1698C17.9392 32.5653 18.6772 32.2596 19.2213 31.7155C19.7654 31.1714 20.0711 30.4334 20.0711 29.6639V3.46661C20.0711 2.69713 19.7654 1.95916 19.2213 1.41506C18.6772 0.870952 17.9392 0.565277 17.1698 0.565277H3.77243C3.00295 0.565277 2.26498 0.870952 1.72088 1.41506C1.17677 1.95916 0.871094 2.69713 0.871094 3.46661V29.6639C0.871094 30.4334 1.17677 31.1714 1.72088 31.7155C2.26498 32.2596 3.00295 32.5653 3.77243 32.5653ZM18.4711 25.6319H2.47109V6.29861H18.4711V25.6319ZM17.1698 30.9653H3.77243C3.42729 30.9653 3.09629 30.8282 2.85225 30.5841C2.6082 30.3401 2.47109 30.0091 2.47109 29.6639V27.2319H18.4711V29.6639C18.4711 30.0091 18.334 30.3401 18.0899 30.5841C17.8459 30.8282 17.5149 30.9653 17.1698 30.9653ZM3.77243 2.16528H17.1698C17.5149 2.16528 17.8459 2.30238 18.0899 2.54643C18.334 2.79048 18.4711 3.12148 18.4711 3.46661V4.69861H2.47109V3.46661C2.47109 3.12148 2.6082 2.79048 2.85225 2.54643C3.09629 2.30238 3.42729 2.16528 3.77243 2.16528Z" fill="#2D9CDB"/>
<path d="M6.02303 17.6639C6.17303 17.8137 6.37636 17.8979 6.58836 17.8979C6.80036 17.8979 7.00369 17.8137 7.15369 17.6639L12.487 12.3306C12.5656 12.2574 12.6287 12.169 12.6724 12.0709C12.7161 11.9728 12.7396 11.8668 12.7415 11.7594C12.7434 11.652 12.7237 11.5453 12.6834 11.4457C12.6432 11.3461 12.5833 11.2556 12.5073 11.1796C12.4314 11.1037 12.3409 11.0438 12.2413 11.0035C12.1416 10.9633 12.0349 10.9435 11.9275 10.9454C11.8201 10.9473 11.7142 10.9708 11.6161 11.0146C11.5179 11.0583 11.4296 11.1213 11.3564 11.1999L6.02303 16.5333C5.87321 16.6833 5.78906 16.8866 5.78906 17.0986C5.78906 17.3106 5.87321 17.5139 6.02303 17.6639Z" fill="#2D9CDB"/>
<path d="M4.98815 13.9306C5.13815 14.0804 5.34148 14.1646 5.55348 14.1646C5.76548 14.1646 5.96881 14.0804 6.11881 13.9306L9.98015 10.0693C10.0972 9.91632 10.1552 9.72626 10.1434 9.53401C10.1316 9.34175 10.0508 9.16021 9.91595 9.02272C9.78105 8.88523 9.60108 8.80102 9.40908 8.78557C9.21709 8.77012 9.02596 8.82445 8.87081 8.9386L5.00948 12.7999C4.8568 12.9471 4.76879 13.1488 4.76479 13.3609C4.76079 13.5729 4.84113 13.7778 4.98815 13.9306Z" fill="#2D9CDB"/>
<path d="M10.471 30.2559C11.2074 30.2559 11.8044 29.659 11.8044 28.9226C11.8044 28.1862 11.2074 27.5893 10.471 27.5893C9.73465 27.5893 9.1377 28.1862 9.1377 28.9226C9.1377 29.659 9.73465 30.2559 10.471 30.2559Z" fill="#2D9CDB"/>
</svg>
