<svg width="138" height="99" viewBox="0 0 138 99" fill="none" xmlns="http://www.w3.org/2000/svg">
<g id="credit-card">
<g id="Group">
<g id="Group_2">
<path id="Vector" d="M41.4844 0H3.51562C1.5772 0 0 1.5772 0 3.51562V28.8281C0 30.7666 1.5772 32.3438 3.51562 32.3438H41.4844C43.4228 32.3438 45 30.7666 45 28.8281V3.51562C45 1.5772 43.4228 0 41.4844 0Z" transform="translate(1.62744 0.431763) scale(3)" fill="#2D9CDB"/>
</g>
<g id="Group_3">
<path id="Vector_2" d="M9.84375 8.4375H1.40625C0.629561 8.4375 0 7.80794 0 7.03125V1.40625C0 0.629561 0.629561 0 1.40625 0H9.84375C10.6204 0 11.25 0.629561 11.25 1.40625V7.03125C11.25 7.80794 10.6204 8.4375 9.84375 8.4375Z" transform="translate(18.5024 17.3068) scale(3)" fill="#FFD100"/>
</g>
<g id="Group_4">
<g id="Group_5">
<path id="Vector_3" d="M4.92188 3.51562H1.40625C0.629561 3.51562 0 2.88606 0 2.10938V1.40625C0 0.629561 0.629561 0 1.40625 0H4.92188C5.69857 0 6.32813 0.629561 6.32813 1.40625V2.10938C6.32813 2.88606 5.69857 3.51562 4.92188 3.51562Z" transform="translate(18.5024 59.4943) scale(3)" fill="#B8BAC0"/>
</g>
<g id="Group_6">
<path id="Vector_4" d="M4.92188 3.51562H1.40625C0.629561 3.51562 0 2.88606 0 2.10938V1.40625C0 0.629561 0.629561 0 1.40625 0H4.92188C5.69857 0 6.32813 0.629561 6.32813 1.40625V2.10938C6.32813 2.88606 5.69857 3.51562 4.92188 3.51562Z" transform="translate(45.9243 59.4943) scale(3)" fill="#B8BAC0"/>
</g>
<g id="Group_7">
<path id="Vector_5" d="M4.92188 3.51562H1.40625C0.629561 3.51562 0 2.88606 0 2.10938V1.40625C0 0.629561 0.629561 0 1.40625 0H4.92188C5.69857 0 6.32813 0.629561 6.32813 1.40625V2.10938C6.32813 2.88606 5.69857 3.51562 4.92188 3.51562Z" transform="translate(73.3462 59.4943) scale(3)" fill="#B8BAC0"/>
</g>
<g id="Group_8">
<path id="Vector_6" d="M4.92188 3.51562H1.40625C0.629561 3.51562 0 2.88606 0 2.10938V1.40625C0 0.629561 0.629561 0 1.40625 0H4.92188C5.69857 0 6.32813 0.629561 6.32813 1.40625V2.10938C6.32813 2.88606 5.69857 3.51562 4.92188 3.51562Z" transform="translate(100.768 59.4943) scale(3)" fill="#B8BAC0"/>
</g>
</g>
<g id="Group_9">
<g id="Group_10">
<path id="Vector_7" d="M14.7656 1.40625H0.703125C0.314473 1.40625 0 1.09143 0 0.703125C0 0.314824 0.314473 0 0.703125 0H14.7656C15.1543 0 15.4688 0.314824 15.4688 0.703125C15.4688 1.09143 15.1543 1.40625 14.7656 1.40625Z" transform="translate(18.5024 78.4786) scale(3)" fill="#8A8895"/>
</g>
</g>
<g id="Group_11">
<g id="Group_12">
<path id="Vector_8" d="M7.03125 1.40625H0.703125C0.314473 1.40625 0 1.09143 0 0.703125C0 0.314824 0.314473 0 0.703125 0H7.03125C7.4199 0 7.73438 0.314824 7.73438 0.703125C7.73438 1.09143 7.4199 1.40625 7.03125 1.40625Z" transform="translate(69.1274 78.4786) scale(3)" fill="#8A8895"/>
</g>
</g>
<g id="Group_13">
<path id="Vector_9" d="M7.36312 7.03143C6.59065 7.89442 5.46812 8.4375 4.21875 8.4375C1.88877 8.4375 -8.58307e-08 6.54873 -8.58307e-08 4.21875C-8.58307e-08 1.88877 1.88877 0 4.21875 0C5.46794 0 6.5903 0.5429 7.36277 1.40563" transform="translate(76.5688 17.3068) scale(3)" fill="#FF4F19"/>
</g>
<g id="Group_14">
<path id="Vector_10" d="M8.4375 4.92188H1.40625V3.51562H8.4375V2.10938H1.40625V0H0V8.4375H1.40625V6.32812H8.4375V4.92188Z" transform="translate(26.9399 17.3068) scale(3)" fill="#FF9500"/>
</g>
<g id="Group_15">
<path id="Vector_11" d="M4.21875 8.4375C6.5487 8.4375 8.4375 6.5487 8.4375 4.21875C8.4375 1.8888 6.5487 0 4.21875 0C1.8888 0 0 1.8888 0 4.21875C0 6.5487 1.8888 8.4375 4.21875 8.4375Z" transform="translate(94.4399 17.3068) scale(3)" fill="#FFD100"/>
</g>
</g>
</g>
</svg>
