<svg width="21" height="23" viewBox="0 0 21 23" fill="none" xmlns="http://www.w3.org/2000/svg">
<path d="M7 10V16C7 16.5523 7.44727 17 8 17C8.55273 17 9 16.5523 9 16V10C9 9.44769 8.55273 9 8 9C7.44727 9 7 9.44769 7 10Z" transform="translate(0.62207 0.715393)" fill="#767676"/>
<path d="M11 16V10C11 9.44769 11.4473 9 12 9C12.5527 9 13 9.44769 13 10V16C13 16.5523 12.5527 17 12 17C11.4473 17 11 16.5523 11 16Z" transform="translate(0.62207 0.715393)" fill="#767676"/>
<path fill-rule="evenodd" clip-rule="evenodd" d="M5 4H1C0.447266 4 0 4.44769 0 5C0 5.55231 0.447266 6 1 6H2V19C2 20.6569 3.34277 22 5 22H15C16.6572 22 18 20.6569 18 19V6H19C19.5527 6 20 5.55231 20 5C20 4.44769 19.5527 4 19 4H15V3C15 1.34314 13.6572 0 12 0H8C6.34277 0 5 1.34314 5 3V4ZM7 4H13V3C13 2.44769 12.5527 2 12 2H8C7.44727 2 7 2.44769 7 3V4ZM4 6V19C4 19.5523 4.44727 20 5 20H15C15.5527 20 16 19.5523 16 19V6H4Z" transform="translate(0.62207 0.715393)" fill="#767676"/>
<path d="M7 10V16C7 16.5523 7.44727 17 8 17C8.55273 17 9 16.5523 9 16V10C9 9.44769 8.55273 9 8 9C7.44727 9 7 9.44769 7 10Z" transform="translate(0.62207 0.715393)" fill="#767676"/>
<path d="M11 16V10C11 9.44769 11.4473 9 12 9C12.5527 9 13 9.44769 13 10V16C13 16.5523 12.5527 17 12 17C11.4473 17 11 16.5523 11 16Z" transform="translate(0.62207 0.715393)" fill="#767676"/>
<path fill-rule="evenodd" clip-rule="evenodd" d="M5 4H1C0.447266 4 0 4.44769 0 5C0 5.55231 0.447266 6 1 6H2V19C2 20.6569 3.34277 22 5 22H15C16.6572 22 18 20.6569 18 19V6H19C19.5527 6 20 5.55231 20 5C20 4.44769 19.5527 4 19 4H15V3C15 1.34314 13.6572 0 12 0H8C6.34277 0 5 1.34314 5 3V4ZM7 4H13V3C13 2.44769 12.5527 2 12 2H8C7.44727 2 7 2.44769 7 3V4ZM4 6V19C4 19.5523 4.44727 20 5 20H15C15.5527 20 16 19.5523 16 19V6H4Z" transform="translate(0.62207 0.715393)" fill="#767676"/>
</svg>
