<svg width="130" height="131" viewBox="0 0 130 131" fill="none" xmlns="http://www.w3.org/2000/svg">
<path d="M13 26C20.1797 26 26 20.1797 26 13C26 5.8203 20.1797 0 13 0C5.8203 0 0 5.8203 0 13C0 20.1797 5.8203 26 13 26Z" transform="translate(2.16675 10.9378)" fill="#EB5757"/>
<path d="M13 26C20.1797 26 26 20.1797 26 13C26 5.8203 20.1797 0 13 0C5.8203 0 0 5.8203 0 13C0 20.1797 5.8203 26 13 26Z" transform="translate(101.833 32.6045)" fill="#2D9CDB" fill-opacity="0.35"/>
<path d="M82.3333 0H0V56.3333H82.3333V0Z" transform="translate(23.8333 71.6045)" fill="#2D9CDB"/>
<path d="M13 0H0V17.3333H13V0Z" transform="translate(58.5 71.6045)" fill="#FF9600"/>
<path d="M13 0H0V13H13V0Z" transform="translate(58.5 114.938)" fill="#FF9600"/>
<path d="M6.5 8.66667H0V4.33333C0 1.93917 1.93917 0 4.33333 0H10.8333V4.33333C10.8333 6.7275 8.89417 8.66667 6.5 8.66667Z" transform="translate(84.5 80.2711)" fill="#EB5757"/>
<path d="M21.6667 30.3333H17.3333C7.761 30.3333 0 22.5723 0 13V0H39V13C39 22.5723 31.239 30.3333 21.6667 30.3333Z" transform="translate(45.5 19.6045)" fill="#6F492E"/>
<path d="M43.3333 17.3333H4.33333C1.93917 17.3333 0 15.3942 0 13C0 5.81967 5.81967 0 13 0H30.3333C37.5137 0 43.3333 5.81967 43.3333 13V17.3333Z" transform="translate(43.3333 2.27115)" fill="#EB5757"/>
<path d="M30.3333 0H13C5.81967 0 0 5.81967 0 13C0 13.5525 0.112665 14.0768 0.303332 14.5643C1.573 8.7165 6.77083 4.33333 13 4.33333H30.3333C37.5137 4.33333 43.3333 10.153 43.3333 17.3333V13C43.3333 5.81967 37.5137 0 30.3333 0Z" transform="translate(43.3333 2.27115)" fill="#EB7361"/>
<path d="M17.3333 8.66667H0C0 3.8805 3.8805 0 8.66667 0C13.4528 0 17.3333 3.8805 17.3333 8.66667Z" transform="translate(56.3333 10.9378)" fill="#EB7361"/>
<path d="M54.7993 0H14.534C10.9893 0 7.80433 2.158 6.487 5.447L0 21.6667H69.3333L62.8463 5.447C61.529 2.158 58.3418 0 54.7993 0Z" transform="translate(30.3333 49.9378)" fill="#FF9600"/>
<path d="M21.6667 0L10.8333 13L0 0H21.6667Z" transform="translate(54.1667 49.9378)" fill="#AFCEE6"/>
<path d="M30.3333 15.1667C30.3333 6.80333 23.53 0 15.1667 0C6.80333 0 0 6.80333 0 15.1667C0 23.53 6.80333 30.3333 15.1667 30.3333C23.53 30.3333 30.3333 23.53 30.3333 15.1667ZM15.1667 26C9.19317 26 4.33333 21.1402 4.33333 15.1667C4.33333 9.19317 9.19317 4.33333 15.1667 4.33333C21.1402 4.33333 26 9.19317 26 15.1667C26 21.1402 21.1402 26 15.1667 26Z" transform="translate(0 8.77115)" fill="#132C47"/>
<path d="M11.8024 0.228939C10.7299 -0.306228 9.42987 0.129273 8.89471 1.19744L5.90687 7.17527L3.69904 4.96744C2.85187 4.12027 1.48254 4.12027 0.635375 4.96744C-0.211791 5.81461 -0.211791 7.18394 0.635375 8.03111L4.96871 12.3644C5.37821 12.7761 5.93071 13.0014 6.50054 13.0014C6.61538 13.0014 6.73237 12.9928 6.84721 12.9733C7.53404 12.8606 8.12554 12.4273 8.43754 11.8033L12.7709 3.13661C13.3082 2.06627 12.8727 0.766272 11.8024 0.228939Z" transform="translate(8.66602 17.4364)" fill="#132C47"/>
<path d="M26.3142 11.4162L27.5318 10.1985C28.379 9.35133 28.379 7.982 27.5318 7.13483C26.6847 6.28767 25.3153 6.28767 24.4682 7.13483L22.9363 8.66667C21.2507 7.65483 19.357 6.96583 17.3333 6.67333V4.33333H19.5C20.696 4.33333 21.6667 3.36267 21.6667 2.16667C21.6667 0.970667 20.696 0 19.5 0H10.8333C9.63733 0 8.66667 0.970667 8.66667 2.16667C8.66667 3.36267 9.63733 4.33333 10.8333 4.33333H13V6.67333C10.9742 6.96583 9.08267 7.65483 7.397 8.66667L5.86517 7.13483C5.018 6.28767 3.64867 6.28767 2.8015 7.13483C1.95433 7.982 1.95433 9.35133 2.8015 10.1985L4.01917 11.4162C1.534 14.1202 0 17.7125 0 21.6667C0 30.03 6.80333 36.8333 15.1667 36.8333C23.53 36.8333 30.3333 30.03 30.3333 21.6667C30.3333 17.7125 28.7993 14.1202 26.3142 11.4162ZM15.1667 32.5C9.19317 32.5 4.33333 27.6402 4.33333 21.6667C4.33333 15.6932 9.19317 10.8333 15.1667 10.8333C21.1402 10.8333 26 15.6932 26 21.6667C26 27.6402 21.1402 32.5 15.1667 32.5Z" transform="translate(99.6667 23.9378)" fill="#132C47"/>
<path d="M9.35134 0.112808C8.2095 -0.268526 6.98966 0.348974 6.6105 1.48214L4.93783 6.50231H2.16667C0.970667 6.50231 0 7.47297 0 8.66897C0 9.86497 0.970667 10.8356 2.16667 10.8356H6.5C7.43383 10.8356 8.25934 10.2398 8.55617 9.35364L10.7228 2.85364C11.102 1.71831 10.4867 0.491974 9.35134 0.112808Z" transform="translate(108.333 39.1022)" fill="#132C47"/>
<path d="M84.5 69.3333H79.4668L73.5237 54.4787C71.8705 50.3403 67.9228 47.6667 63.466 47.6667H57.7287C62.1573 44.0895 65 38.623 65 32.5V23.8333H75.8333C77.0293 23.8333 78 22.8627 78 21.6667C78 20.4707 77.0293 19.5 75.8333 19.5H67.1667V15.1667C67.1667 6.80333 60.3633 0 52 0H34.6667C26.3033 0 19.5 6.80333 19.5 15.1667C19.5 17.0798 20.3472 18.785 21.6667 19.9767V32.5C21.6667 38.623 24.5093 44.0895 28.938 47.6667H23.2007C18.7438 47.6667 14.7962 50.3403 13.1408 54.4765L7.19983 69.3333H2.16667C0.970667 69.3333 0 70.304 0 71.5V127.833C0 129.029 0.970667 130 2.16667 130H36.8333H49.8333H84.5C85.696 130 86.6667 129.029 86.6667 127.833V71.5C86.6667 70.304 85.696 69.3333 84.5 69.3333ZM49.5408 52L43.3333 59.449L37.1258 52H41.1667H45.5H49.5408ZM34.6667 4.33333H52C57.9735 4.33333 62.8333 9.19317 62.8333 15.1667V17.3333H53.9478C52.9403 12.3955 48.5637 8.66667 43.3333 8.66667C38.103 8.66667 33.7263 12.3955 32.7188 17.3333H26C24.8062 17.3333 23.8333 16.3605 23.8333 15.1667C23.8333 9.19317 28.6932 4.33333 34.6667 4.33333ZM37.2038 17.3333C38.0987 14.8113 40.508 13 43.3333 13C46.1587 13 48.568 14.8113 49.4628 17.3333H37.2038ZM26 32.5V21.6667H31.161L30.563 22.8648C30.0278 23.9352 30.4612 25.2373 31.5315 25.7725C31.8413 25.9263 32.1728 26 32.4978 26C33.293 26 34.0578 25.5623 34.4392 24.8018L36.0057 21.6667H39.8277L39.2297 22.8648C38.6945 23.9352 39.1278 25.2373 40.1982 25.7725C40.508 25.9263 40.8395 26 41.1645 26C41.9597 26 42.7245 25.5623 43.1058 24.8018L44.6723 21.6667H52H60.6667V32.5C60.6667 40.8633 53.8633 47.6667 45.5 47.6667H41.1667C32.8033 47.6667 26 40.8633 26 32.5ZM17.1665 56.0863C18.1588 53.6033 20.527 52 23.2007 52H31.486L41.6693 64.22C42.081 64.714 42.6898 65 43.3333 65C43.9768 65 44.5857 64.714 44.9973 64.22L55.1807 52H63.466C66.1397 52 68.5078 53.6033 69.5002 56.0863L74.7998 69.3333H63.9925L60.3027 63.7975C59.6375 62.803 58.292 62.53 57.2975 63.1973C56.303 63.8603 56.0343 65.2058 56.6973 66.2025L58.786 69.3333H49.8333H36.8333H29.0073L30.2228 65.6847C30.602 64.5493 29.9888 63.323 28.8535 62.9438C27.7117 62.5603 26.4918 63.18 26.1127 64.3132L24.4378 69.3333H11.8668L17.1665 56.0863ZM39 73.6667H47.6667V86.6667H39V73.6667ZM39 125.667V117H47.6667V125.667H39ZM82.3333 125.667H52V114.833C52 113.637 51.0293 112.667 49.8333 112.667H36.8333C35.6373 112.667 34.6667 113.637 34.6667 114.833V125.667H4.33333V73.6667H8.66667H25.9935C25.9957 73.6667 25.9978 73.6667 26 73.6667C26.0022 73.6667 26.0043 73.6667 26.0065 73.6667H34.6667V88.8333C34.6667 90.0293 35.6373 91 36.8333 91H49.8333C51.0293 91 52 90.0293 52 88.8333V73.6667H78H82.3333V125.667Z" transform="translate(21.6667 0.104492)" fill="#132C47"/>
<path d="M2.16667 4.33333H8.66667C9.86267 4.33333 10.8333 3.36267 10.8333 2.16667C10.8333 0.970667 9.86267 0 8.66667 0H2.16667C0.970667 0 0 0.970667 0 2.16667C0 3.36267 0.970667 4.33333 2.16667 4.33333Z" transform="translate(32.5 78.1045)" fill="#132C47"/>
<path d="M13 0H2.16667C0.970667 0 0 0.970667 0 2.16667C0 3.36267 0.970667 4.33333 2.16667 4.33333H13C14.196 4.33333 15.1667 3.36267 15.1667 2.16667C15.1667 0.970667 14.196 0 13 0Z" transform="translate(32.5 86.7711)" fill="#132C47"/>
<path d="M8.66667 0H2.16667C0.970667 0 0 0.970667 0 2.16667C0 3.36267 0.970667 4.33333 2.16667 4.33333H8.66667C9.86267 4.33333 10.8333 3.36267 10.8333 2.16667C10.8333 0.970667 9.86267 0 8.66667 0Z" transform="translate(86.6667 108.438)" fill="#132C47"/>
<path d="M13 0H2.16667C0.970667 0 0 0.970667 0 2.16667C0 3.36267 0.970667 4.33333 2.16667 4.33333H13C14.196 4.33333 15.1667 3.36267 15.1667 2.16667C15.1667 0.970667 14.196 0 13 0Z" transform="translate(82.3333 117.104)" fill="#132C47"/>
<path d="M13 0H6.5C2.91633 0 0 2.91633 0 6.5V10.8333C0 12.0293 0.970667 13 2.16667 13H8.66667C12.2503 13 15.1667 10.0837 15.1667 6.5V2.16667C15.1667 0.970667 14.196 0 13 0ZM10.8333 6.5C10.8333 7.69383 9.8605 8.66667 8.66667 8.66667H4.33333V6.5C4.33333 5.30617 5.30617 4.33333 6.5 4.33333H10.8333V6.5Z" transform="translate(82.3333 78.1045)" fill="#132C47"/>
<path d="M8.66667 10.8333C13.4463 10.8333 17.3333 6.94633 17.3333 2.16667C17.3333 0.970667 16.3627 0 15.1667 0C13.9707 0 13 0.970667 13 2.16667C13 4.5565 11.0565 6.5 8.66667 6.5C6.27683 6.5 4.33333 4.5565 4.33333 2.16667C4.33333 0.970667 3.36267 0 2.16667 0C0.970667 0 0 0.970667 0 2.16667C0 6.94633 3.887 10.8333 8.66667 10.8333Z" transform="translate(56.3333 32.6045)" fill="#132C47"/>
</svg>
