<svg width="25" height="25" viewBox="0 0 25 25" fill="none" xmlns="http://www.w3.org/2000/svg">
<path fill-rule="evenodd" clip-rule="evenodd" d="M23.0002 -2.7832e-06H1.00047C0.447716 -2.7832e-06 -2.23047e-05 0.447753 -2.23047e-05 0.999753V23.0002C-2.23047e-05 23.5522 0.447716 24 1.00047 24H12.75V15H9.74998V11.25H12.75V8.25C12.75 5.15025 14.7128 3.62475 17.478 3.62475C18.8025 3.62475 19.9411 3.72374 20.2726 3.76724V7.00726L18.3547 7.00799C16.851 7.00799 16.5 7.72274 16.5 8.77124V11.25H20.25L19.5 15H16.5L16.56 24H23.0002C23.5522 24 24 23.5522 24 23.0002V0.999753C24 0.447753 23.5522 -2.7832e-06 23.0002 -2.7832e-06Z" transform="translate(0.766113 0.181396)" fill="orange"/>
</svg>
