<svg width="32" height="50" viewBox="0 0 32 50" fill="none" xmlns="http://www.w3.org/2000/svg">
<path id="Vector" d="M9.84727 1.5L8.15977 10.3875L14.2723 10.425L5.94727 22.4625L7.63477 12.675L1.52227 12.6375L9.84727 1.5ZM9.84727 -7.15256e-08C9.80977 -7.15256e-08 9.77227 -7.15256e-08 9.73477 -7.15256e-08C9.47227 0.0374999 9.28477 0.1125 9.09727 0.2625C8.98477 0.3375 8.87227 0.45 8.79727 0.525C8.75977 0.5625 8.75977 0.6 8.72227 0.6375L0.284766 11.775C-0.0527341 12.225 -0.0902345 12.825 0.172265 13.35C0.434765 13.8375 0.959766 14.175 1.52227 14.175L5.83477 14.2125L4.48477 22.2375C4.37227 22.9125 4.70977 23.625 5.38477 23.8875C5.57227 23.9625 5.79727 24 5.98477 24C6.47227 24 6.84727 23.775 7.14727 23.3625L15.5473 11.325C15.8848 10.875 15.9223 10.275 15.6598 9.75C15.3973 9.2625 14.8723 8.925 14.3098 8.925H9.99726L11.3473 1.875C11.3848 1.7625 11.3848 1.65 11.3848 1.5375C11.3848 0.7125 10.7473 0.0750001 9.92227 0.0375001C9.88477 6.98492e-08 9.84727 -7.15256e-08 9.84727 -7.15256e-08Z" transform="translate(0 1.00281) scale(2)" fill="#EB5757"/>
</svg>
