<svg width="20" height="23" viewBox="0 0 20 23" fill="none" xmlns="http://www.w3.org/2000/svg">
<path fill-rule="evenodd" clip-rule="evenodd" d="M0.385742 7.21066L9.38574 0.210663C9.74707 -0.0702209 10.2529 -0.0702209 10.6143 0.210663L19.6143 7.21066C19.8574 7.40012 20 7.69138 20 7.99997V19C20 20.6568 18.6572 22 17 22H3C1.34277 22 0 20.6568 0 19V7.99997C0 7.69138 0.142578 7.40012 0.385742 7.21066ZM8 20H12V12H8V20ZM14 20V11C14 10.4477 13.5527 9.99997 13 9.99997H7C6.44727 9.99997 6 10.4477 6 11V20H3C2.44727 20 2 19.5522 2 19V8.48898L10 2.26682L18 8.48898V19C18 19.5522 17.5527 20 17 20H14Z" transform="translate(0 0.216797)" fill="#909090"/>
</svg>
