<svg width="24" height="25" viewBox="0 0 24 25" fill="none" xmlns="http://www.w3.org/2000/svg">
<path fill-rule="evenodd" clip-rule="evenodd" d="M21 21.75H3C2.586 21.75 2.25 21.414 2.25 21V9.75H5.25C4.85925 10.3125 4.72729 11.3617 4.72729 12.0277C4.72729 16.044 8.00246 19.3118 12.0277 19.3118C16.0537 19.3118 19.329 16.044 19.329 12.0277C19.329 11.3617 19.2345 10.3282 18.75 9.75H21.75V21C21.75 21.414 21.414 21.75 21 21.75ZM12.0277 7.42349C14.577 7.42349 16.6433 9.48524 16.6433 12.0277C16.6433 14.571 14.577 16.6327 12.0277 16.6327C9.47921 16.6327 7.41296 14.571 7.41296 12.0277C7.41296 9.48524 9.47921 7.42349 12.0277 7.42349ZM18 3H20.25C20.664 3 21 3.336 21 3.75V6C21 6.414 20.664 6.75 20.25 6.75H18C17.586 6.75 17.25 6.414 17.25 6V3.75C17.25 3.336 17.586 3 18 3ZM21.147 -2.7832e-06H2.85303C1.27728 -2.7832e-06 0 1.27425 0 2.84625V21.1537C0 22.7257 1.27728 24 2.85303 24H21.147C22.7227 24 24 22.7257 24 21.1537V2.84625C24 1.27425 22.7227 -2.7832e-06 21.147 -2.7832e-06Z" transform="translate(0.000244141 0.181396)" fill="orange"/>
</svg>
