<svg width="20" height="30" viewBox="0 0 30 42" fill="none" xmlns="http://www.w3.org/2000/svg">
<path id="Union" fill-rule="evenodd" clip-rule="evenodd" d="M0 7.02703C0 3.14595 3.146 0 7.02698 0C10.9081 0 14.0541 3.14595 14.0541 7.02703C14.0541 12.4324 7.02698 20 7.02698 20C7.02698 20 0 12.4324 0 7.02703ZM2.70276 7.02703C2.70276 9.41135 4.6427 11.3514 7.02698 11.3514C9.41138 11.3514 11.3513 9.41135 11.3513 7.02703C11.3513 4.6427 9.41138 2.7027 7.02698 2.7027C4.6427 2.7027 2.70276 4.6427 2.70276 7.02703ZM7.5675 6.48648H8.10815C8.40698 6.48648 8.64868 6.72865 8.64868 7.02702C8.64868 7.32541 8.40698 7.56757 8.10815 7.56757H7.5675V8.1081C7.5675 8.40648 7.32544 8.64865 7.02698 8.64865C6.72864 8.64865 6.48645 8.40648 6.48645 8.1081V7.56757H5.94592C5.64758 7.56757 5.4054 7.32541 5.4054 7.02702C5.4054 6.72865 5.64758 6.48648 5.94592 6.48648H6.48645V5.94594C6.48645 5.64756 6.72864 5.4054 7.02698 5.4054C7.32544 5.4054 7.5675 5.64756 7.5675 5.94594V6.48648Z" transform="translate(0 1.00281) scale(2)" fill="#F2994A"/>
</svg>
