<svg width="28" height="18" viewBox="0 0 28 18" fill="none" xmlns="http://www.w3.org/2000/svg">
<path fill-rule="evenodd" clip-rule="evenodd" d="M13.5967 14.7098C12.1562 15.9541 10.2881 16.7053 8.24707 16.7053C3.69238 16.7053 0 12.9656 0 8.35266C0 3.73962 3.69238 0 8.24707 0C10.2881 0 12.1562 0.751221 13.5967 1.99554C15.0371 0.751221 16.9053 6.10352e-05 18.9463 6.10352e-05C23.501 6.10352e-05 27.1934 3.73969 27.1934 8.35272C27.1934 12.9657 23.501 16.7053 18.9463 16.7053C16.9053 16.7053 15.0371 15.9541 13.5967 14.7098Z" transform="translate(0.490234 0.918213)" fill="#FF5E00"/>
<path fill-rule="evenodd" clip-rule="evenodd" d="M13.5967 14.7098C12.1562 15.9541 10.2881 16.7053 8.24707 16.7053C3.69238 16.7053 0 12.9656 0 8.35266C0 3.73962 3.69238 0 8.24707 0C10.2881 0 12.1562 0.751221 13.5967 1.99554C11.8232 3.52759 10.6992 5.80719 10.6992 8.35272C10.6992 10.8982 11.8232 13.1777 13.5967 14.7098Z" transform="translate(0.490234 0.918213)" fill="#ED0006"/>
<path fill-rule="evenodd" clip-rule="evenodd" d="M0 14.7098C1.44043 15.9541 3.30859 16.7053 5.34961 16.7053C9.9043 16.7053 13.5967 12.9656 13.5967 8.35266C13.5967 3.73962 9.9043 0 5.34961 0C3.30859 0 1.44043 0.75116 0 1.99548C1.77344 3.52753 2.89746 5.80713 2.89746 8.35266C2.89746 10.8982 1.77344 13.1777 0 14.7098Z" transform="translate(14.0879 0.918335)" fill="#F9A000"/>
</svg>
