<svg width="138" height="131" viewBox="0 0 138 131" fill="none" xmlns="http://www.w3.org/2000/svg">
<path d="M33.1075 5.25252e-07V35.9685H4.45929e-06V5.25252e-07H12.7614V7.03914C12.7614 9.12805 14.4871 10.8541 16.5764 10.8541C18.6653 10.8541 20.3914 9.15123 20.3914 7.03914V5.25252e-07H33.1075Z" transform="translate(40.7954 7.7341) scale(-1 1)" fill="#2D9CDB"/>
<path d="M22.8435 11.4217C22.8435 5.13183 17.7117 3.51598e-06 11.4217 3.51598e-06C5.13183 3.51598e-06 -2.14389e-07 5.15466 -2.14389e-07 11.4217C-2.14389e-07 17.6888 5.13183 22.8435 11.4217 22.8435C17.7117 22.8435 22.8435 17.7117 22.8435 11.4217Z" transform="translate(129.513 99.472) scale(-1 1)" fill="#EB5757"/>
<path d="M11.4217 3.77324e-06C5.13182 3.77324e-06 -3.60173e-06 5.13183 -3.60173e-06 11.4217C-3.60173e-06 17.7117 5.13182 22.8435 11.4217 22.8435C17.7117 22.8435 22.8435 17.7117 22.8435 11.4217C22.8435 4.95023 17.7117 3.77324e-06 11.4217 3.77324e-06Z" transform="translate(32.053 99.6764) scale(-1 1)" fill="#EB5757"/>
<path d="M-7.71799e-07 8.17486H61.3097V0.000109846H11.2401C6.10832 -0.0223704 1.52128 3.40657 -7.71799e-07 8.17486Z" transform="translate(68.7937 51.3321) scale(-1 1)" fill="white"/>
<path d="M-3.859e-07 -1.41497e-06V8.37918C2.47494 7.42552 3.81498 5.72229 3.81498 4.20101C3.81498 2.67972 2.47529 0.749224 -3.859e-07 -1.41497e-06Z" transform="translate(120.385 42.9533) scale(-1 1)" fill="white"/>
<path d="M34.0836 -2.61554e-06H-2.61554e-06C6.65311 6.28991 10.0821 14.6691 11.8078 22.8435C18.0977 14.4643 28.1797 9.1284 39.4199 9.1284C42.2809 9.1284 45.1422 9.51443 47.9807 10.2637C43.3936 1.72571 36.9221 0.204428 34.0836 -2.61554e-06Z" transform="translate(60.0283 67.114) scale(-1 1)" fill="#FF9600"/>
<path d="M19.0289 8.57555e-07C8.56077 8.57555e-07 0 8.56043 0 19.0285C0 29.4966 8.56077 38.0574 19.0289 38.0574C29.4969 38.0574 38.0577 29.4966 38.0577 19.0285C37.8758 8.37883 29.4969 8.57555e-07 19.0289 8.57555e-07ZM7.60712 18.8469C7.60712 12.557 12.7389 7.42517 19.0289 7.42517C25.3188 7.42517 30.4506 12.557 30.4506 18.8469C30.4506 25.1368 25.3188 30.2687 19.0289 30.2687C12.7389 30.2687 7.60712 25.1368 7.60712 18.8469Z" transform="translate(137.288 92.0468) scale(-1 1)" fill="#132C47"/>
<path d="M19.0289 8.57555e-07C8.56077 8.57555e-07 2.57266e-06 8.56078 2.57266e-06 19.0289C2.57266e-06 29.497 8.56077 38.0577 19.0289 38.0577C29.4969 38.0577 38.0577 29.497 38.0577 19.0289C38.0806 8.37883 29.4969 8.57555e-07 19.0289 8.57555e-07ZM19.0289 30.2687C12.7389 30.2687 7.60712 25.1368 7.60712 18.8469C7.60712 12.557 12.7389 7.42517 19.0289 7.42517C25.3188 7.42517 30.4506 12.557 30.4506 18.8469C30.4506 25.1368 25.3188 30.2687 19.0289 30.2687Z" transform="translate(40.01 92.0468) scale(-1 1)" fill="#132C47"/>
<path d="M133.156 -4.55576e-08H92.2376C90.1487 -4.55576e-08 88.4227 1.70288 88.4227 3.81498V43.5984H79.2943C68.4401 43.5984 59.6749 52.3636 59.6749 63.2177C59.6749 64.739 60.6286 66.2607 62.1499 66.8283C81.1787 73.8674 82.5184 95.1896 82.1324 105.09C81.9508 105.658 81.9508 106.43 81.7464 106.997H53.2031C51.5002 91.1931 39.1244 78.6361 23.5017 76.5468C25.2046 68.9397 28.4519 52.5677 28.6335 36.3773L38.534 31.0411C40.4413 30.0874 41.0089 27.7941 40.0553 25.9092C39.1016 24.0019 36.8083 23.4343 34.9234 24.388L23.1164 30.8595C21.5951 31.6315 21.0275 33.1528 21.2091 34.6744C21.2091 34.856 21.2091 36.0141 21.2091 36.3773C18.7341 35.0376 15.8728 34.47 12.8299 34.47C10.741 34.47 9.0149 36.1729 9.0149 38.285V55.6106C9.0149 57.6995 10.7178 59.4256 12.8299 59.4256C15.1232 59.4256 17.3941 59.0396 19.3014 58.2903C18.1661 66.2835 16.6445 72.9594 15.8724 76.3655C10.9222 76.7516 6.15358 78.2729 1.97541 80.7481C0.0680944 81.7018 -0.499533 84.1771 0.454123 85.88C1.40778 87.7873 3.88307 88.3549 5.58595 87.4013C9.58253 85.1079 14.1467 83.9723 18.915 83.9723C33.7657 83.9723 45.9367 96.1661 45.9367 110.994C45.9367 113.083 47.6396 114.809 49.7516 114.809H85.5385C87.6274 114.809 89.3535 113.106 89.3535 110.994C89.3535 96.1433 101.547 83.9723 116.375 83.9723C120.939 83.9723 125.708 85.1076 129.704 87.4013C132.951 89.1041 136.176 86.0616 135.222 83.0187C133.315 75.7751 130.272 70.8249 127.047 67.2143H133.337C135.426 67.2143 137.152 65.5114 137.152 63.3993V3.81498C136.971 1.72571 135.268 -4.55576e-08 133.156 -4.55576e-08ZM16.4629 51.2052V42.826C18.9378 43.7797 20.2779 45.4829 20.2779 47.0042C20.2779 48.5483 18.9382 50.2515 16.4629 51.2052ZM116.216 76.1604C104.976 76.1604 94.8942 81.4967 88.6043 89.8755C86.9014 81.7008 83.4724 73.3219 76.7965 67.032H110.903C113.764 67.2136 120.236 68.7349 124.8 77.3185C122.12 76.524 119.078 76.1604 116.216 76.1604ZM129.364 59.4024H68.0541C69.5754 54.6338 74.1396 51.2277 79.4759 51.2277H129.545V59.4024H129.364ZM129.364 43.5981H96.0523V7.6296H108.814V14.6687C108.814 16.7577 110.517 18.4837 112.629 18.4837C114.718 18.4837 116.444 16.7808 116.444 14.6687V7.6296H129.205V43.5981H129.364Z" transform="translate(137.198 0.104492) scale(-1 1)" fill="#132C47"/>
<path d="M3.81498 7.62995C5.92193 7.62995 7.62995 5.92193 7.62995 3.81498C7.62995 1.70803 5.92193 -5.14533e-06 3.81498 -5.14533e-06C1.70802 -5.14533e-06 0 1.70803 0 3.81498C0 5.92193 1.70802 7.62995 3.81498 7.62995Z" transform="translate(122.074 107.079) scale(-1 1)" fill="#132C47"/>
<path d="M3.81497 7.62995C5.92192 7.62995 7.62995 5.92193 7.62995 3.81498C7.62995 1.70803 5.92192 -5.14533e-06 3.81497 -5.14533e-06C1.70802 -5.14533e-06 0 1.70803 0 3.81498C0 5.92193 1.70802 7.62995 3.81497 7.62995Z" transform="translate(24.7961 107.079) scale(-1 1)" fill="#132C47"/>
</svg>
