<svg width="52" height="50" viewBox="0 0 52 50" fill="none" xmlns="http://www.w3.org/2000/svg">
<path d="M24.8993 0.00200723V0.0071429C24.6407 0.0222379 24.3924 0.113355 24.1854 0.269062L17.5963 5.21472H6.61628H5.30154V6.52945V14.4281L0.812965 17.792C0.502395 17.9202 0.252713 18.1625 0.115183 18.4691C-0.0223472 18.7757 -0.0372878 19.1233 0.0734278 19.4405C0.0510546 19.5417 0.0407117 19.6451 0.0426138 19.7487V48.6522C0.0426105 48.6539 0.0426105 48.6557 0.0426138 48.6574C0.0423964 48.6985 0.04411 48.7396 0.0477495 48.7806C0.0477461 48.7823 0.0477461 48.7841 0.0477495 48.7858C0.0526398 48.8272 0.0594951 48.8683 0.0682922 48.909C0.0682888 48.9107 0.0682888 48.9124 0.0682922 48.9142C0.0765714 48.9557 0.0868548 48.9968 0.0991062 49.0374C0.0991029 49.0391 0.0991029 49.0408 0.0991062 49.0425C0.112604 49.0826 0.128029 49.1221 0.145327 49.1607C0.145324 49.1624 0.145324 49.1641 0.145327 49.1658C0.162337 49.2043 0.18119 49.2421 0.20182 49.2788C0.201816 49.2805 0.201816 49.2822 0.20182 49.2839C0.223999 49.321 0.247994 49.357 0.273719 49.3918C0.273716 49.3935 0.273716 49.3952 0.273719 49.3969C0.297845 49.4306 0.323552 49.4632 0.350754 49.4945C0.350751 49.4962 0.350751 49.4979 0.350754 49.4996C0.380016 49.532 0.410869 49.5628 0.443196 49.5921C0.687587 49.8311 1.01548 49.9656 1.35735 49.967C1.37104 49.9672 1.38474 49.9672 1.39843 49.967H48.4104C48.6197 50.0148 48.8376 50.0106 49.0449 49.9548C49.2523 49.899 49.4428 49.7933 49.5998 49.6469C49.7569 49.5005 49.8757 49.3178 49.9459 49.1149C50.0161 48.912 50.0355 48.6949 50.0024 48.4828V19.7487C50.0046 19.5727 49.9714 19.398 49.9049 19.2351C49.9049 19.2334 49.9049 19.2317 49.9049 19.23C49.9547 18.9597 49.9186 18.6805 49.8016 18.4318C49.6846 18.1831 49.4926 17.9773 49.2526 17.8433L44.7435 14.4692V6.52431V5.21472H43.5212C43.4905 5.21192 43.4596 5.21021 43.4288 5.20958H32.3717L25.7621 0.263927C25.5143 0.0776563 25.2088 -0.0151082 24.8993 0.00200723V0.00200723ZM24.9814 2.96529L27.9858 5.21472H21.9822L24.9814 2.96529ZM7.93101 7.84418H18.0329H31.8787H42.114V15.1317V21.4999L42.0165 21.5616L41.9394 21.6078L24.9763 32.2027L7.93101 21.577V15.1214C7.93117 15.1094 7.93117 15.0975 7.93101 15.0855V7.84418ZM30.3174 12.5485C30.2746 12.5481 30.2317 12.5498 30.189 12.5536C29.8477 12.5725 29.5272 12.7235 29.2954 12.9747L21.6484 21.048L18.0637 17.4376C17.9411 17.3109 17.7942 17.2101 17.6319 17.1413C17.4696 17.0725 17.295 17.037 17.1187 17.037C16.8575 17.0371 16.6022 17.115 16.3854 17.2608C16.1687 17.4065 16.0002 17.6136 15.9016 17.8555C15.803 18.0973 15.7786 18.3631 15.8317 18.6189C15.8847 18.8747 16.0128 19.1089 16.1994 19.2916L20.5699 23.6877C20.7291 23.9216 20.9595 24.0979 21.2269 24.1904C21.4943 24.2829 21.7844 24.2867 22.0541 24.2013C22.08 24.1935 22.1057 24.185 22.1311 24.1756C22.1467 24.1691 22.1621 24.1622 22.1774 24.1551C22.2016 24.1455 22.2256 24.1352 22.2493 24.1243C22.2648 24.116 22.2803 24.1075 22.2955 24.0986C22.4593 24.0115 22.6028 23.8907 22.7166 23.7442L31.2059 14.7825C31.384 14.6006 31.5056 14.371 31.5557 14.1214C31.6059 13.8718 31.5825 13.613 31.4884 13.3764C31.3943 13.1399 31.2336 12.9357 31.0257 12.7887C30.8179 12.6418 30.5718 12.5583 30.3174 12.5485V12.5485ZM5.30154 17.7201V19.9387L3.68381 18.9321L5.30154 17.7201ZM44.7435 17.756L46.2739 18.9013L46.048 19.0399L44.7435 19.8565V17.756ZM47.373 21.3099V46.2179L33.6556 37.0508C33.437 36.8984 33.1773 36.816 32.9109 36.8145V36.8196C32.6267 36.8186 32.3499 36.9096 32.1218 37.0791C31.8937 37.2486 31.7266 37.4875 31.6457 37.7599C31.5647 38.0323 31.5742 38.3236 31.6726 38.5901C31.7711 38.8567 31.9533 39.0842 32.1919 39.2385L44.3224 47.3375H5.69699L17.8429 39.2385C18.0844 39.0827 18.2681 38.8519 18.366 38.5817C18.4639 38.3114 18.4706 38.0165 18.3849 37.7421C18.2993 37.4677 18.1261 37.2289 17.8918 37.0623C17.6576 36.8957 17.3752 36.8105 17.0879 36.8196C16.8361 36.8277 16.5919 36.9079 16.3843 37.0508L2.67208 46.1974V21.3972L5.30154 23.0355L5.92296 23.4207L24.0519 34.7243L24.2727 34.863L24.3703 34.9246C24.372 34.9246 24.3737 34.9246 24.3754 34.9246C24.4222 34.9462 24.4702 34.9651 24.5192 34.9811C24.6007 35.0116 24.685 35.034 24.7709 35.0478C24.8507 35.0604 24.9315 35.0655 25.0123 35.0632C25.0191 35.0633 25.026 35.0633 25.0328 35.0632C25.0482 35.0618 25.0636 35.0601 25.079 35.0581C25.0996 35.0569 25.1201 35.0552 25.1406 35.053C25.1492 35.0513 25.1578 35.0496 25.1663 35.0478C25.2095 35.0414 25.2524 35.0328 25.2947 35.0222C25.3364 35.0122 25.3775 35.0002 25.418 34.9862C25.4528 34.974 25.487 34.9603 25.5207 34.9451C25.5276 34.9418 25.5344 34.9383 25.5412 34.9349C25.5481 34.9315 25.555 34.9281 25.5618 34.9246H25.5875L44.7435 22.9585V22.9533L47.373 21.3099Z" transform="translate(0.990723)" fill="#27AE60"/>
</svg>
