<svg width="131" height="131" viewBox="0 0 131 131" fill="none" xmlns="http://www.w3.org/2000/svg">
<path d="M54.1668 -1.98364e-06V8.125C54.1668 9.62076 52.9542 10.8334 51.4584 10.8334H2.70842C1.21266 10.8334 -1.89066e-06 9.62076 -1.89066e-06 8.125V-1.98364e-06H54.1668Z" transform="translate(38.2501 117.149)" fill="#2D9CDB"/>
<path d="M-1.89066e-06 1.98364e-06H37.9166V21.6666H-1.89066e-06V1.98364e-06Z" transform="translate(46.3751 95.4824)" fill="#D9EEF7"/>
<path d="M97.5 48.75V56.875H0V48.75V0H97.5V48.75Z" transform="translate(16.5835 16.9408)" fill="#FF9600" fill-opacity="0.59"/>
<path d="M124.583 5.41658V70.4166H111.042V13.5416H13.5416V70.4166H-4.64916e-08V5.41658C0.00888667 2.42887 2.42887 0.00888667 5.41658 -4.64916e-08H119.167C122.155 0.00888667 124.574 2.42887 124.583 5.41658Z" transform="translate(3.04187 3.3992)" fill="#2D9CDB" fill-opacity="0.35"/>
<path d="M124.583 0V16.25C124.574 19.238 122.154 21.6577 119.167 21.6666H5.41658C2.42887 21.6577 0.00888667 19.2377 -4.64916e-08 16.25V0H124.583Z" transform="translate(3.04199 73.8158)" fill="#2D9CDB"/>
<path d="M32.5 16.25H0C0 7.27543 7.27543 1.89066e-06 16.25 1.89066e-06C25.2246 1.89066e-06 32.5 7.27518 32.5 16.25Z" transform="translate(49.0836 44.0242)" fill="#AAC4DA"/>
<path d="M21.6666 0.00025386C21.6666 5.9833 26.517 10.8337 32.5 10.8337V40.6253C32.5 31.6507 25.2246 24.3753 16.25 24.3753C7.27543 24.3753 0 31.6507 0 40.6253V10.8334C5.98305 10.8334 10.8334 5.98305 10.8334 9.29832e-08H21.6666V0.00025386Z" transform="translate(49.0835 19.649)" fill="#D9EEF7"/>
<path d="M54.1671 5.41658V51.4582H43.3337V21.6666C37.3506 21.6666 32.5003 16.8162 32.5003 10.8332H21.6668C21.6668 16.8162 16.8165 21.6666 10.8334 21.6666V51.4582H1.85966e-07V5.41658C0.0088869 2.42887 2.42887 0.00888672 5.41658 0H48.75C51.7382 0.00888672 54.1582 2.42887 54.1671 5.41658Z" transform="translate(38.2496 8.8158)" fill="#31E8BB"/>
<path d="M-4.64916e-08 1.98364e-06H108.333V5.41658H-4.64916e-08V1.98364e-06Z" transform="translate(11.1669 71.1074)" fill="#4C5B66"/>
<path d="M121.875 0H97.5V5.41658H121.875C123.371 5.41658 124.583 6.62924 124.583 8.125V89.375C124.583 90.8708 123.371 92.0834 121.875 92.0834H8.125C6.62924 92.0834 5.41658 90.8708 5.41658 89.375V8.125C5.41658 6.62924 6.62924 5.41658 8.125 5.41658H32.5V0H8.125C3.63771 0 0 3.63771 0 8.125V89.375C0 93.8623 3.63771 97.5 8.125 97.5H43.3334V113.75H37.9168C36.4211 113.75 35.2084 114.963 35.2084 116.458V124.583H29.7918V130H100.208V124.583H94.7918V116.458C94.7918 114.963 93.5792 113.75 92.0834 113.75H86.6668V97.5H121.875C126.362 97.5 130 93.8623 130 89.375V8.125C130 3.63771 126.362 0 121.875 0ZM89.375 124.583H40.625V119.167H89.375V124.583ZM81.25 113.75H48.75V97.5H81.25V113.75Z" transform="translate(0.333496 0.690796)" fill="#4C5B66"/>
<path d="M13.5416 4.64916e-08H-1.98364e-06V5.41658H10.8334V51.4584H16.25V2.70842C16.25 1.21266 15.0373 4.64916e-08 13.5416 4.64916e-08Z" transform="translate(100.542 14.2324)" fill="#4C5B66"/>
<path d="M16.25 5.41684V4.64916e-08H2.70842C1.21266 4.64916e-08 4.64916e-08 1.21266 4.64916e-08 2.70842V51.4584H5.41658V5.41684H16.25Z" transform="translate(13.8751 14.2324)" fill="#4C5B66"/>
<path d="M-1.89066e-06 0H5.41658V5.41658H-1.89066e-06V0Z" transform="translate(46.3751 16.9408)" fill="#4C5B66"/>
<path d="M1.98364e-06 0H5.41658V5.41658H1.98364e-06V0Z" transform="translate(78.8751 16.9408)" fill="#4C5B66"/>
<path d="M-4.64916e-08 51.4584V56.875H75.8334V51.4584H67.7084V8.125C67.7084 3.63771 64.0707 4.64916e-08 59.5834 4.64916e-08H16.25C11.7627 4.64916e-08 8.125 3.63771 8.125 8.125V51.4584H-4.64916e-08ZM51.4582 40.9256C44.1797 33.4468 32.2164 33.2843 24.7376 40.5628C24.6149 40.6821 24.4941 40.803 24.3747 40.9256V26.8125C29.69 25.7189 33.8437 21.5653 34.9372 16.25H40.8957C41.9892 21.5653 46.1429 25.7189 51.4582 26.8125V40.9256ZM51.1875 51.4584H24.6457C26.1341 44.1292 33.282 39.3941 40.6113 40.8825C45.9405 41.9644 50.1054 46.1294 51.1875 51.4584ZM13.5416 8.125C13.5416 6.62924 14.7542 5.41658 16.25 5.41658H59.5834C61.0792 5.41658 62.2918 6.62924 62.2918 8.125V51.4584H56.8753V24.375C56.8753 22.8792 55.6626 21.6666 54.1668 21.6666C49.6796 21.6666 46.0418 18.0289 46.0418 13.5416C46.0416 12.0461 44.8289 10.8334 43.3332 10.8334H32.4997C31.0042 10.8334 29.7916 12.0461 29.7916 13.5418C29.7916 18.0291 26.1539 21.6668 21.6666 21.6668C20.1708 21.6668 18.9582 22.8795 18.9582 24.3753V51.4584H13.5416V8.125Z" transform="translate(27.4169 6.10739)" fill="#4C5B66"/>
</svg>
