<svg width="118" height="131" viewBox="0 0 118 131" fill="none" xmlns="http://www.w3.org/2000/svg">
<path d="M2.20326 3.89981e-06C0.986508 3.89981e-06 4.45452e-07 0.986513 4.45452e-07 2.20326V11.0163C4.45452e-07 12.233 0.986508 13.2196 2.20326 13.2196C3.42001 13.2196 4.40652 12.233 4.40652 11.0163V2.20326C4.40652 0.986513 3.42001 3.89981e-06 2.20326 3.89981e-06Z" transform="translate(9.75732 73.6523)" fill="#EB5757"/>
<path d="M2.20326 3.89981e-06C0.986508 3.89981e-06 -6.05143e-07 0.986513 -6.05143e-07 2.20326V11.0163C-6.05143e-07 12.233 0.986508 13.2196 2.20326 13.2196C3.42001 13.2196 4.40652 12.233 4.40652 11.0163V2.20326C4.40652 0.986513 3.42001 3.89981e-06 2.20326 3.89981e-06Z" transform="translate(18.5703 78.0588)" fill="#FF9600"/>
<path d="M27.4801 3.01185C26.4531 2.35914 25.0915 2.66291 24.4388 3.6899C23.8125 4.67559 24.064 5.97882 25.0125 6.66045C31.0687 10.7381 32.6724 18.9533 28.595 25.0092C24.5173 31.0654 16.3022 32.6694 10.2463 28.5917C4.19005 24.514 2.58608 16.2989 6.66376 10.2429C9.11901 6.59628 13.2267 4.40872 17.6228 4.40652C18.8395 4.40652 19.826 3.42001 19.826 2.20326C19.826 0.986513 18.8395 3.89981e-06 17.6228 3.89981e-06C7.88821 0.00193175 -0.00192992 7.89483 -2.06736e-06 17.6294C0.00192578 27.3639 7.89483 35.2541 17.6294 35.2521C27.3639 35.2502 35.2541 27.3573 35.2521 17.6228C35.251 11.7635 32.3383 6.28754 27.4801 3.01185Z" transform="translate(73.655 86.8718)" fill="#2D9CDB"/>
<path d="M115.735 96.2355C113.6 88.8405 108.347 82.7436 101.35 79.5381V30.8461C101.35 30.067 100.939 29.3457 100.268 28.9491L51.7964 0.306735C51.1046 -0.102245 50.245 -0.102245 49.5535 0.306735L1.0818 28.9491C1.03553 28.9755 1.00248 29.0152 0.958417 29.046C0.914352 29.0769 0.87249 29.1121 0.828425 29.1474C0.637017 29.298 0.472599 29.4798 0.341505 29.685C0.341505 29.7004 0.315066 29.7092 0.306253 29.7246V29.7401C0.182044 29.964 0.0977697 30.2077 0.0572848 30.4605C0.0572848 30.5266 0.0374553 30.5883 0.0308455 30.6544C0.0242358 30.7205 5.83246e-08 30.78 5.83246e-08 30.8461V88.1308C-0.000275349 88.9099 0.411183 89.6312 1.0818 90.0278L49.5535 118.67C49.6116 118.698 49.6711 118.723 49.7319 118.745C49.792 118.775 49.8539 118.802 49.917 118.824C50.402 119.027 50.9479 119.027 51.4329 118.824C51.4967 118.802 51.5593 118.775 51.6201 118.745C51.6774 118.719 51.7391 118.703 51.7964 118.67L64.952 110.895C69.0003 124.918 83.6497 133.005 97.6732 128.956C111.696 124.908 119.783 110.259 115.735 96.2355ZM50.6749 4.76172L62.1319 11.5323L45.1448 21.5704C44.0966 22.1898 43.7487 23.5417 44.3681 24.5899C44.9875 25.6381 46.3395 25.986 47.3877 25.3666L66.4657 14.1013L77.9226 20.8719L33.7826 46.9475L22.3256 40.1769L40.7823 29.2708C41.8305 28.6514 42.1783 27.2994 41.559 26.2512C40.9396 25.203 39.5876 24.8552 38.5394 25.4746L17.994 37.6167L6.53486 30.8461L50.6749 4.76172ZM31.5793 50.7658V65.4769L20.1973 58.7504V44.0392L31.5793 50.7658ZM64.765 96.7428C64.179 98.9653 63.8862 101.255 63.8945 103.554C63.895 104.476 63.9435 105.397 64.0399 106.314L52.8782 112.913V105.757C52.8782 104.54 51.8917 103.554 50.6749 103.554C49.4582 103.554 48.4717 104.54 48.4717 105.757V112.913L4.40652 86.8749V34.7084L15.7907 41.435V60.0062C15.7899 60.7862 16.2011 61.5086 16.8725 61.9054L32.6611 71.2362C33.0009 71.4362 33.3882 71.5419 33.7826 71.5425C34.9993 71.5425 35.9858 70.556 35.9858 69.3392V53.3678L48.4717 60.7465V96.9438C48.4717 98.1606 49.4582 99.1471 50.6749 99.1471C51.8917 99.1471 52.8782 98.1606 52.8782 96.9438V60.7465L92.81 37.1496C93.8577 36.5302 94.205 35.1788 93.5856 34.1311C92.9662 33.0835 91.6148 32.7362 90.5671 33.3556L50.6749 56.9305L38.1164 49.5077L82.2564 23.4233L96.9434 32.1019V77.9958C82.8808 74.2869 68.474 82.6799 64.765 96.7428ZM90.3336 125.586C78.1653 125.586 68.301 115.722 68.301 103.554C68.301 91.3853 78.1653 81.521 90.3336 81.521C102.502 81.521 112.366 91.3853 112.366 103.554C112.353 115.716 102.496 125.573 90.3336 125.586Z" transform="translate(0.944336 0.944244)" fill="#132C47"/>
<path d="M16.8996 0.618636C16.0458 -0.206209 14.6919 -0.206209 13.8382 0.618636L5.48122 8.97559L3.73404 7.22841C2.8588 6.38291 1.46413 6.40714 0.618631 7.28238C-0.206213 8.13615 -0.206213 9.49005 0.618631 10.3438L3.92352 13.6487C4.78389 14.5088 6.17856 14.5088 7.03893 13.6487L16.9536 3.73404C17.7991 2.85879 17.7748 1.46386 16.8996 0.618636Z" transform="translate(82.4917 97.915)" fill="#FF9600"/>
</svg>
