<svg width="153" height="150" viewBox="0 0 153 150" fill="none" xmlns="http://www.w3.org/2000/svg">
<g id="Group">
<g id="Group_2">
<path id="Vector" d="M48.8095 0H1.19048C0.533333 0 0 0.533333 0 1.19048V48.8095C0 49.4679 0.533333 50 1.19048 50H48.8095C49.4679 50 50 49.4679 50 48.8095V1.19048C50 0.533333 49.4679 0 48.8095 0ZM19.0476 2.38095H30.9524V7.14286H29.7619C29.4452 7.14286 29.1429 7.26786 28.9202 7.49167L27.381 9.03095L25.8417 7.49167C25.3762 7.02619 24.6238 7.02619 24.1583 7.49167L22.619 9.03095L21.0798 7.49167C20.8571 7.26786 20.5536 7.14286 20.2381 7.14286H19.0476V2.38095ZM47.619 47.619H2.38095V2.38095H16.6667V8.33333C16.6667 8.99048 17.2 9.52381 17.8571 9.52381H19.7452L21.7774 11.556C22.2429 12.0214 22.9952 12.0214 23.4607 11.556L25 10.0167L26.5393 11.556C26.7714 11.7881 27.0762 11.9048 27.381 11.9048C27.6857 11.9048 27.9905 11.7881 28.2226 11.556L30.2548 9.52381H32.1429C32.8012 9.52381 33.3333 8.99048 33.3333 8.33333V2.38095H47.619V47.619Z" transform="translate(2.51953) scale(3)" fill="#2D9CDB"/>
<path id="Vector_2" d="M14.6348 4.41339C14.867 4.64554 15.1717 4.7622 15.4765 4.7622C15.7812 4.7622 16.086 4.64554 16.3182 4.41339C16.7836 3.94792 16.7836 3.19553 16.3182 2.73006L13.9372 0.349106C13.4717 -0.11637 12.7193 -0.11637 12.2539 0.349106L9.87292 2.73006C9.40744 3.19553 9.40744 3.94792 9.87292 4.41339C10.3384 4.87887 11.0908 4.87887 11.5563 4.41339L11.9051 4.06458V11.9051H4.7622V4.06458L5.11101 4.41339C5.34315 4.64554 5.64792 4.7622 5.95268 4.7622C6.25744 4.7622 6.5622 4.64554 6.79435 4.41339C7.25982 3.94792 7.25982 3.19553 6.79435 2.73006L4.41339 0.349106C3.94792 -0.11637 3.19553 -0.11637 2.73006 0.349106L0.349106 2.73006C-0.11637 3.19553 -0.11637 3.94792 0.349106 4.41339C0.814582 4.87887 1.56697 4.87887 2.03244 4.41339L2.38125 4.06458V11.9051H1.19077C0.533631 11.9051 0.000297619 12.4372 0.000297619 13.0955C0.000297619 13.7539 0.533631 14.286 1.19077 14.286H15.4765C16.1336 14.286 16.667 13.7539 16.667 13.0955C16.667 12.4372 16.1336 11.9051 15.4765 11.9051H14.286V4.06458L14.6348 4.41339Z" transform="translate(23.9465 85.7135) scale(3)" fill="#2D9CDB"/>
</g>
</g>
</svg>
