<?xml version="1.0" ?><svg height="24" version="1.1" width="24" xmlns="http://www.w3.org/2000/svg" xmlns:cc="http://creativecommons.org/ns#" xmlns:dc="http://purl.org/dc/elements/1.1/" xmlns:rdf="http://www.w3.org/1999/02/22-rdf-syntax-ns#"><g transform="translate(0 -1028.4)"><path d="m13.499 1030.6c-0.354 0-0.703 0-1.038 0.1-0.195 0-0.385 0.1-0.573 0.2-0.073 0-0.147 0-0.219 0.1h-0.082c-0.177 0.1-0.351 0.2-0.519 0.3h-0.082c-0.049 0.1-0.088 0.1-0.136 0.2-0.137 0.1-0.281 0.1-0.41 0.3-0.117 0.1-0.218 0.2-0.328 0.3-0.3711 0.4-0.6932 0.8-0.9555 1.3-0.4505 0.7-0.7868 1.6-0.9287 2.5h-0.1912c-0.459 0.2-0.572 1-0.2731 1.9 0.1754 0.6 0.4673 1 0.7648 1.2 0.3996 1.6 1.2461 2.9 2.3487 3.7v0.9l-0.874 0.8-1.7479 0.9c-1.4135 0.7-2.8216 1.4-4.2335 2.1-0.7825 0.4-1.0852 1.4-1.0106 2.2 0.0364 0.6-0.1613 1.3 0.3823 1.6 0.5165 0.3 1.1327 0.1 1.6935 0.1h4.9162 6.992c2.069 0 4.132 0.1 6.201 0 0.671 0 0.857-0.7 0.792-1.3 0.012-0.8 0.06-1.7-0.574-2.3-0.517-0.5-1.253-0.7-1.884-1.1-0.927-0.4-1.86-0.9-2.786-1.3l-1.749-0.9-0.874-0.8v-0.9c1.103-0.8 1.95-2.1 2.349-3.7 0.298-0.2 0.59-0.6 0.765-1.2 0.299-0.9 0.186-1.7-0.273-1.9h-0.191c-0.142-0.9-0.478-1.8-0.929-2.5-0.262-0.5-0.584-0.9-0.956-1.3-0.11-0.1-0.21-0.2-0.328-0.3h-0.027c-0.342-0.3-0.723-0.6-1.12-0.8-0.1 0-0.197-0.1-0.3-0.1-0.073 0-0.144-0.1-0.219-0.1-0.223-0.1-0.45-0.1-0.683-0.2h-0.054-0.656z" fill="#909090"/></g></svg>