<svg width="60" height="61" viewBox="0 0 60 61" fill="none" xmlns="http://www.w3.org/2000/svg">
<circle cx="30" cy="30" r="30" transform="translate(0 0.501404)" fill="#2D9CDB"/>
<path fill-rule="evenodd" clip-rule="evenodd" d="M16.835 0.585786C16.054 -0.195262 14.7877 -0.195262 14.0067 0.585786C13.2256 1.36684 13.2256 2.63316 14.0067 3.41422L21.3222 10.7297L2.0085 10.6477C0.903949 10.643 0.0047182 11.5346 1.84931e-05 12.6391C-0.00468121 13.7437 0.886981 14.6429 1.99153 14.6476L21.3522 14.7299L14.2144 21.8445C13.432 22.6243 13.43 23.8907 14.2098 24.673C14.9895 25.4553 16.2559 25.4573 17.0382 24.6776L26.8737 14.874C27.0075 14.7407 27.1259 14.5979 27.2293 14.4479C27.7924 14.0961 28.1682 13.4718 28.1712 12.7588C28.1742 12.0409 27.7986 11.4097 27.232 11.0545C27.1289 10.9043 27.0106 10.7614 26.8772 10.6279L16.835 0.585786Z" transform="translate(16 17.5014)" fill="white"/>
</svg>
