<svg width="25" height="15" viewBox="0 0 25 15" fill="none" xmlns="http://www.w3.org/2000/svg">
<path d="M7.79297 4.79291C8.18359 4.40234 8.81641 4.40234 9.20703 4.79291L13.5 9.08582L20.5859 2H17C16.4473 2 16 1.55231 16 1C16 0.447693 16.4473 0 17 0H23C23.2559 0 23.5117 0.0976562 23.707 0.292908C23.9023 0.488159 24 0.74408 24 1V7C24 7.55231 23.5527 8 23 8C22.4473 8 22 7.55231 22 7V3.41412L14.207 11.2071C13.8164 11.5977 13.1836 11.5977 12.793 11.2071L8.5 6.91418L1.70703 13.7071C1.31641 14.0977 0.683594 14.0977 0.292969 13.7071C-0.0976562 13.3166 -0.0976562 12.6834 0.292969 12.2929L7.79297 4.79291Z" transform="translate(0.800781 0.216736)" fill="#979797"/>
<path d="M7.79297 4.79291C8.18359 4.40234 8.81641 4.40234 9.20703 4.79291L13.5 9.08582L20.5859 2H17C16.4473 2 16 1.55231 16 1C16 0.447693 16.4473 0 17 0H23C23.2559 0 23.5117 0.0976562 23.707 0.292908C23.9023 0.488159 24 0.74408 24 1V7C24 7.55231 23.5527 8 23 8C22.4473 8 22 7.55231 22 7V3.41412L14.207 11.2071C13.8164 11.5977 13.1836 11.5977 12.793 11.2071L8.5 6.91418L1.70703 13.7071C1.31641 14.0977 0.683594 14.0977 0.292969 13.7071C-0.0976562 13.3166 -0.0976562 12.6834 0.292969 12.2929L7.79297 4.79291Z" transform="translate(0.800781 0.216736)" fill="#979797"/>
</svg>
