<svg width="22" height="22" viewBox="0 0 33 32" fill="none" xmlns="http://www.w3.org/2000/svg">
<path d="M6.78597 30C7.01268 29.9987 7.23587 29.943 7.43737 29.8375L15.3226 25.8118L23.4935 29.8492C23.7294 29.9666 23.9926 30.0163 24.2544 29.9927C24.5161 29.9691 24.7666 29.8732 24.9785 29.7154C25.1904 29.5577 25.3558 29.344 25.4566 29.0976C25.5574 28.8512 25.5899 28.5815 25.5505 28.3177L24.2134 19.4541L30.5216 12.818C30.7048 12.6257 30.8324 12.3859 30.8906 12.125C30.9488 11.864 30.9353 11.5918 30.8516 11.3381C30.7679 11.0844 30.6172 10.8589 30.416 10.6861C30.2147 10.5134 29.9706 10.4001 29.7102 10.3585L21.0022 8.90832L16.7282 0.775597C16.6051 0.540393 16.421 0.343834 16.1958 0.20714C15.9706 0.070446 15.7129 -0.00116575 15.4505 2.87722e-05C15.1882 0.0012233 14.9311 0.0751583 14.7072 0.213897C14.4832 0.352636 14.3008 0.550878 14.1798 0.787193L10.1229 8.75748L1.18638 10.3585C0.927511 10.4055 0.686259 10.5235 0.488807 10.6998C0.291355 10.8761 0.145245 11.104 0.0663381 11.3587C-0.0125689 11.6133 -0.0212588 11.8851 0.0412109 12.1444C0.103681 12.4037 0.234923 12.6407 0.420694 12.8297L6.61457 19.1989L5.36892 28.3294C5.33946 28.5362 5.35402 28.7469 5.41161 28.9475C5.46921 29.1481 5.56851 29.3339 5.7028 29.4922C5.8371 29.6505 6.00328 29.7778 6.19013 29.8654C6.37698 29.953 6.58016 29.9989 6.78597 30ZM22.2935 25.9975L15.9511 22.8766C15.7522 22.7764 15.5332 22.7243 15.3112 22.7243C15.0891 22.7243 14.8701 22.7764 14.6712 22.8766L8.60301 25.9743L9.57436 18.8857C9.60525 18.6633 9.58524 18.4366 9.51588 18.2234C9.44651 18.0101 9.32966 17.8159 9.1744 17.6559L4.39757 12.7484L11.3343 11.5071C11.5532 11.467 11.76 11.3759 11.9385 11.2411C12.1169 11.1062 12.2621 10.9312 12.3627 10.7297L15.4826 4.60413L18.7966 10.9154C18.8997 11.116 19.0473 11.2897 19.2278 11.4225C19.4083 11.5554 19.6167 11.6439 19.8366 11.6811L26.5333 12.7948L21.6536 17.9459C21.4987 18.1083 21.383 18.3049 21.3155 18.5203C21.2481 18.7357 21.2308 18.964 21.265 19.1873L22.2935 25.9975Z" transform="translate(1.04199 1.17529)" fill="black" stroke="white"/>
</svg>
