<svg width="23" height="23" viewBox="0 0 23 23" fill="none" xmlns="http://www.w3.org/2000/svg">
<path d="M11 4C11.5527 4 12 4.44769 12 5V10.5858L14.707 13.2929C15.0977 13.6834 15.0977 14.3166 14.707 14.7071C14.3164 15.0977 13.6836 15.0977 13.293 14.7071L10.293 11.7071C10.1904 11.605 10.1123 11.483 10.0625 11.3502C10.0215 11.2393 10 11.1207 10 11V5C10 4.44769 10.4473 4 11 4Z" transform="translate(0.601562 0.216797)" fill="#979797"/>
<path fill-rule="evenodd" clip-rule="evenodd" d="M11 22C4.9248 22 0 17.0751 0 11C0 4.92487 4.9248 0 11 0C17.0752 0 22 4.92487 22 11C22 17.0751 17.0752 22 11 22ZM11 20C15.9707 20 20 15.9706 20 11C20 6.02942 15.9707 2 11 2C6.0293 2 2 6.02942 2 11C2 15.9706 6.0293 20 11 20Z" transform="translate(0.601562 0.216797)" fill="#979797"/>
</svg>
