<svg width="31" height="25" viewBox="0 0 31 25" fill="none" xmlns="http://www.w3.org/2000/svg">
<path fill-rule="evenodd" clip-rule="evenodd" d="M29.5328 2.8407C28.4466 3.32245 27.2782 3.64821 26.0526 3.79495C27.304 3.04463 28.2647 1.8578 28.7169 0.44299C27.5466 1.13701 26.2491 1.64092 24.8694 1.91317C23.7637 0.735555 22.1893 -2.7832e-06 20.4469 -2.7832e-06C17.1004 -2.7832e-06 14.388 2.7124 14.388 6.05884C14.388 6.53321 14.4415 6.99557 14.5449 7.43948C9.50862 7.18661 5.04459 4.77415 2.05624 1.1084C1.5348 2.00361 1.23581 3.04466 1.23581 4.1549C1.23581 6.25635 2.3054 8.11138 3.93063 9.19763C2.93759 9.16625 2.00363 8.89398 1.18686 8.43991C1.18594 8.46575 1.18588 8.49067 1.18588 8.51651C1.18588 11.4523 3.27445 13.9007 6.04684 14.4572C5.53832 14.5956 5.00298 14.6695 4.45016 14.6695C4.05978 14.6695 3.68047 14.6317 3.31039 14.5615C4.08101 16.9684 6.31906 18.7201 8.97055 18.769C6.8968 20.3942 4.28412 21.3624 1.44528 21.3624C0.956148 21.3624 0.474335 21.3338 -3.46094e-05 21.2784C2.68099 22.9968 5.86594 24 9.28805 24C20.433 24 26.5269 14.7673 26.5269 6.76117C26.5269 6.49814 26.5214 6.23694 26.5094 5.97668C27.6934 5.123 28.7207 4.05615 29.5328 2.8407Z" transform="translate(0.616699 0.181396)" fill="orange"/>
</svg>
