<svg width="26" height="26" viewBox="0 0 26 26" fill="none" xmlns="http://www.w3.org/2000/svg">
<path d="M22.6421 4.06405H21.5962V1.8824C21.5962 0.844897 20.7526 3.16082e-07 19.7143 3.16082e-07H19.649L1.811 3.76656C0.803027 3.96004 -2.2193e-07 4.63349 -2.2193e-07 5.64763V5.94645V20.4009V22.1176C-2.2193e-07 23.1564 0.845337 24 1.8824 24H22.6421C23.68 24 24.5245 23.1564 24.5245 22.1176V5.94601C24.5245 4.90895 23.68 4.06405 22.6421 4.06405ZM23.2697 16.2104H19.3969C18.195 16.2104 17.2183 15.2333 17.2183 14.0318C17.2183 12.8308 18.1955 11.8537 19.3969 11.8537H23.2697V16.2104ZM19.7685 1.25699C20.0889 1.28475 20.341 1.55449 20.341 1.88196V4.06361H6.47578L19.7685 1.25699ZM22.6421 22.7448H1.8824C1.5373 22.7448 1.25478 22.464 1.25478 22.1172V20.3423V5.94601C1.25478 5.60047 1.5373 5.3184 1.8824 5.3184H22.6421C22.9889 5.3184 23.2697 5.60047 23.2697 5.94601V10.5984H19.3969C17.5031 10.5984 15.9631 12.1384 15.9631 14.0318C15.9631 15.9257 17.5031 17.4656 19.3969 17.4656H23.2697V22.1176C23.2697 22.464 22.9889 22.7448 22.6421 22.7448Z" transform="translate(0.398438 1.2168)" fill="#909090" stroke="#909090" stroke-width="0.7"/>
<path d="M-1.61403e-07 0.914974C-1.61403e-07 1.41962 0.409007 1.82907 0.914976 1.82907C1.42006 1.82907 1.82995 1.41918 1.82995 0.914974C1.82995 0.409006 1.42006 -6.72514e-08 0.914976 -6.72514e-08C0.409007 -6.72514e-08 -1.61403e-07 0.409006 -1.61403e-07 0.914974Z" transform="translate(18.9238 14.3341)" fill="#909090" stroke="#909090" stroke-width="0.7"/>
</svg>
