<svg width="20" height="20" viewBox="0 0 34 42" fill="none" xmlns="http://www.w3.org/2000/svg">
<path id="Vector" d="M16.9231 4.61538L15 0H1.92308L0 4.61538V20H16.9231V4.61538ZM14.2308 1.15385L15.5115 4.23077H11.0308L10.5192 1.15385H14.2308ZM6.53846 5.38462H10.3846V8.89615L9.61538 8.38461L8.46154 9.15385L7.30769 8.38461L6.53846 8.89615V5.38462ZM6.67308 4.23077L7.18462 1.15385H8.07692V4.23077H6.67308ZM8.84615 4.23077V1.15385H9.73846L10.25 4.23077H8.84615ZM2.69231 1.15385H6.40385L5.89231 4.23077H1.41154L2.69231 1.15385ZM1.15385 18.8462V5.38462H5.76923V10.3346L7.30769 9.30769L8.46154 10.0769L9.61538 9.30769L11.1538 10.3346V5.38462H15.7692V18.8462H1.15385Z" transform="translate(0 1.00281) scale(2)" fill="#EB5757"/>
</svg>
